%TF.GenerationSoftware,KiCad,Pcbnew,9.0.6*%
%TF.CreationDate,2025-12-21T17:03:36+00:00*%
%TF.ProjectId,CNC Plotter KiCad Try2,434e4320-506c-46f7-9474-6572204b6943,rev?*%
%TF.SameCoordinates,Original*%
%TF.FileFunction,Legend,Top*%
%TF.FilePolarity,Positive*%
%FSLAX46Y46*%
G04 Gerber Fmt 4.6, Leading zero omitted, Abs format (unit mm)*
G04 Created by KiCad (PCBNEW 9.0.6) date 2025-12-21 17:03:36*
%MOMM*%
%LPD*%
G01*
G04 APERTURE LIST*
%ADD10C,0.150000*%
%ADD11C,0.120000*%
G04 APERTURE END LIST*
D10*
X143155714Y-101279104D02*
X143631904Y-101279104D01*
X143060476Y-101564819D02*
X143393809Y-100564819D01*
X143393809Y-100564819D02*
X143727142Y-101564819D01*
X143965238Y-100564819D02*
X144584285Y-100564819D01*
X144584285Y-100564819D02*
X144250952Y-100945771D01*
X144250952Y-100945771D02*
X144393809Y-100945771D01*
X144393809Y-100945771D02*
X144489047Y-100993390D01*
X144489047Y-100993390D02*
X144536666Y-101041009D01*
X144536666Y-101041009D02*
X144584285Y-101136247D01*
X144584285Y-101136247D02*
X144584285Y-101374342D01*
X144584285Y-101374342D02*
X144536666Y-101469580D01*
X144536666Y-101469580D02*
X144489047Y-101517200D01*
X144489047Y-101517200D02*
X144393809Y-101564819D01*
X144393809Y-101564819D02*
X144108095Y-101564819D01*
X144108095Y-101564819D02*
X144012857Y-101517200D01*
X144012857Y-101517200D02*
X143965238Y-101469580D01*
X102654819Y-101573333D02*
X103369104Y-101573333D01*
X103369104Y-101573333D02*
X103511961Y-101620952D01*
X103511961Y-101620952D02*
X103607200Y-101716190D01*
X103607200Y-101716190D02*
X103654819Y-101859047D01*
X103654819Y-101859047D02*
X103654819Y-101954285D01*
X103083390Y-100954285D02*
X103035771Y-101049523D01*
X103035771Y-101049523D02*
X102988152Y-101097142D01*
X102988152Y-101097142D02*
X102892914Y-101144761D01*
X102892914Y-101144761D02*
X102845295Y-101144761D01*
X102845295Y-101144761D02*
X102750057Y-101097142D01*
X102750057Y-101097142D02*
X102702438Y-101049523D01*
X102702438Y-101049523D02*
X102654819Y-100954285D01*
X102654819Y-100954285D02*
X102654819Y-100763809D01*
X102654819Y-100763809D02*
X102702438Y-100668571D01*
X102702438Y-100668571D02*
X102750057Y-100620952D01*
X102750057Y-100620952D02*
X102845295Y-100573333D01*
X102845295Y-100573333D02*
X102892914Y-100573333D01*
X102892914Y-100573333D02*
X102988152Y-100620952D01*
X102988152Y-100620952D02*
X103035771Y-100668571D01*
X103035771Y-100668571D02*
X103083390Y-100763809D01*
X103083390Y-100763809D02*
X103083390Y-100954285D01*
X103083390Y-100954285D02*
X103131009Y-101049523D01*
X103131009Y-101049523D02*
X103178628Y-101097142D01*
X103178628Y-101097142D02*
X103273866Y-101144761D01*
X103273866Y-101144761D02*
X103464342Y-101144761D01*
X103464342Y-101144761D02*
X103559580Y-101097142D01*
X103559580Y-101097142D02*
X103607200Y-101049523D01*
X103607200Y-101049523D02*
X103654819Y-100954285D01*
X103654819Y-100954285D02*
X103654819Y-100763809D01*
X103654819Y-100763809D02*
X103607200Y-100668571D01*
X103607200Y-100668571D02*
X103559580Y-100620952D01*
X103559580Y-100620952D02*
X103464342Y-100573333D01*
X103464342Y-100573333D02*
X103273866Y-100573333D01*
X103273866Y-100573333D02*
X103178628Y-100620952D01*
X103178628Y-100620952D02*
X103131009Y-100668571D01*
X103131009Y-100668571D02*
X103083390Y-100763809D01*
X103319580Y-123286666D02*
X103367200Y-123334285D01*
X103367200Y-123334285D02*
X103414819Y-123477142D01*
X103414819Y-123477142D02*
X103414819Y-123572380D01*
X103414819Y-123572380D02*
X103367200Y-123715237D01*
X103367200Y-123715237D02*
X103271961Y-123810475D01*
X103271961Y-123810475D02*
X103176723Y-123858094D01*
X103176723Y-123858094D02*
X102986247Y-123905713D01*
X102986247Y-123905713D02*
X102843390Y-123905713D01*
X102843390Y-123905713D02*
X102652914Y-123858094D01*
X102652914Y-123858094D02*
X102557676Y-123810475D01*
X102557676Y-123810475D02*
X102462438Y-123715237D01*
X102462438Y-123715237D02*
X102414819Y-123572380D01*
X102414819Y-123572380D02*
X102414819Y-123477142D01*
X102414819Y-123477142D02*
X102462438Y-123334285D01*
X102462438Y-123334285D02*
X102510057Y-123286666D01*
X102510057Y-122905713D02*
X102462438Y-122858094D01*
X102462438Y-122858094D02*
X102414819Y-122762856D01*
X102414819Y-122762856D02*
X102414819Y-122524761D01*
X102414819Y-122524761D02*
X102462438Y-122429523D01*
X102462438Y-122429523D02*
X102510057Y-122381904D01*
X102510057Y-122381904D02*
X102605295Y-122334285D01*
X102605295Y-122334285D02*
X102700533Y-122334285D01*
X102700533Y-122334285D02*
X102843390Y-122381904D01*
X102843390Y-122381904D02*
X103414819Y-122953332D01*
X103414819Y-122953332D02*
X103414819Y-122334285D01*
X143466666Y-92454819D02*
X143466666Y-93169104D01*
X143466666Y-93169104D02*
X143419047Y-93311961D01*
X143419047Y-93311961D02*
X143323809Y-93407200D01*
X143323809Y-93407200D02*
X143180952Y-93454819D01*
X143180952Y-93454819D02*
X143085714Y-93454819D01*
X143895238Y-92550057D02*
X143942857Y-92502438D01*
X143942857Y-92502438D02*
X144038095Y-92454819D01*
X144038095Y-92454819D02*
X144276190Y-92454819D01*
X144276190Y-92454819D02*
X144371428Y-92502438D01*
X144371428Y-92502438D02*
X144419047Y-92550057D01*
X144419047Y-92550057D02*
X144466666Y-92645295D01*
X144466666Y-92645295D02*
X144466666Y-92740533D01*
X144466666Y-92740533D02*
X144419047Y-92883390D01*
X144419047Y-92883390D02*
X143847619Y-93454819D01*
X143847619Y-93454819D02*
X144466666Y-93454819D01*
X101614819Y-113403333D02*
X102329104Y-113403333D01*
X102329104Y-113403333D02*
X102471961Y-113450952D01*
X102471961Y-113450952D02*
X102567200Y-113546190D01*
X102567200Y-113546190D02*
X102614819Y-113689047D01*
X102614819Y-113689047D02*
X102614819Y-113784285D01*
X101948152Y-112498571D02*
X102614819Y-112498571D01*
X101567200Y-112736666D02*
X102281485Y-112974761D01*
X102281485Y-112974761D02*
X102281485Y-112355714D01*
X104519819Y-91933333D02*
X105234104Y-91933333D01*
X105234104Y-91933333D02*
X105376961Y-91980952D01*
X105376961Y-91980952D02*
X105472200Y-92076190D01*
X105472200Y-92076190D02*
X105519819Y-92219047D01*
X105519819Y-92219047D02*
X105519819Y-92314285D01*
X104519819Y-91552380D02*
X104519819Y-90885714D01*
X104519819Y-90885714D02*
X105519819Y-91314285D01*
X118586666Y-92454819D02*
X118586666Y-93169104D01*
X118586666Y-93169104D02*
X118539047Y-93311961D01*
X118539047Y-93311961D02*
X118443809Y-93407200D01*
X118443809Y-93407200D02*
X118300952Y-93454819D01*
X118300952Y-93454819D02*
X118205714Y-93454819D01*
X119586666Y-93454819D02*
X119015238Y-93454819D01*
X119300952Y-93454819D02*
X119300952Y-92454819D01*
X119300952Y-92454819D02*
X119205714Y-92597676D01*
X119205714Y-92597676D02*
X119110476Y-92692914D01*
X119110476Y-92692914D02*
X119015238Y-92740533D01*
X118115714Y-101229104D02*
X118591904Y-101229104D01*
X118020476Y-101514819D02*
X118353809Y-100514819D01*
X118353809Y-100514819D02*
X118687142Y-101514819D01*
X118972857Y-100610057D02*
X119020476Y-100562438D01*
X119020476Y-100562438D02*
X119115714Y-100514819D01*
X119115714Y-100514819D02*
X119353809Y-100514819D01*
X119353809Y-100514819D02*
X119449047Y-100562438D01*
X119449047Y-100562438D02*
X119496666Y-100610057D01*
X119496666Y-100610057D02*
X119544285Y-100705295D01*
X119544285Y-100705295D02*
X119544285Y-100800533D01*
X119544285Y-100800533D02*
X119496666Y-100943390D01*
X119496666Y-100943390D02*
X118925238Y-101514819D01*
X118925238Y-101514819D02*
X119544285Y-101514819D01*
X126914819Y-113123333D02*
X127629104Y-113123333D01*
X127629104Y-113123333D02*
X127771961Y-113170952D01*
X127771961Y-113170952D02*
X127867200Y-113266190D01*
X127867200Y-113266190D02*
X127914819Y-113409047D01*
X127914819Y-113409047D02*
X127914819Y-113504285D01*
X126914819Y-112170952D02*
X126914819Y-112647142D01*
X126914819Y-112647142D02*
X127391009Y-112694761D01*
X127391009Y-112694761D02*
X127343390Y-112647142D01*
X127343390Y-112647142D02*
X127295771Y-112551904D01*
X127295771Y-112551904D02*
X127295771Y-112313809D01*
X127295771Y-112313809D02*
X127343390Y-112218571D01*
X127343390Y-112218571D02*
X127391009Y-112170952D01*
X127391009Y-112170952D02*
X127486247Y-112123333D01*
X127486247Y-112123333D02*
X127724342Y-112123333D01*
X127724342Y-112123333D02*
X127819580Y-112170952D01*
X127819580Y-112170952D02*
X127867200Y-112218571D01*
X127867200Y-112218571D02*
X127914819Y-112313809D01*
X127914819Y-112313809D02*
X127914819Y-112551904D01*
X127914819Y-112551904D02*
X127867200Y-112647142D01*
X127867200Y-112647142D02*
X127819580Y-112694761D01*
X106403333Y-101909580D02*
X106355714Y-101957200D01*
X106355714Y-101957200D02*
X106212857Y-102004819D01*
X106212857Y-102004819D02*
X106117619Y-102004819D01*
X106117619Y-102004819D02*
X105974762Y-101957200D01*
X105974762Y-101957200D02*
X105879524Y-101861961D01*
X105879524Y-101861961D02*
X105831905Y-101766723D01*
X105831905Y-101766723D02*
X105784286Y-101576247D01*
X105784286Y-101576247D02*
X105784286Y-101433390D01*
X105784286Y-101433390D02*
X105831905Y-101242914D01*
X105831905Y-101242914D02*
X105879524Y-101147676D01*
X105879524Y-101147676D02*
X105974762Y-101052438D01*
X105974762Y-101052438D02*
X106117619Y-101004819D01*
X106117619Y-101004819D02*
X106212857Y-101004819D01*
X106212857Y-101004819D02*
X106355714Y-101052438D01*
X106355714Y-101052438D02*
X106403333Y-101100057D01*
X107260476Y-101338152D02*
X107260476Y-102004819D01*
X107022381Y-100957200D02*
X106784286Y-101671485D01*
X106784286Y-101671485D02*
X107403333Y-101671485D01*
X98198233Y-119929580D02*
X98150614Y-119977200D01*
X98150614Y-119977200D02*
X98007757Y-120024819D01*
X98007757Y-120024819D02*
X97912519Y-120024819D01*
X97912519Y-120024819D02*
X97769662Y-119977200D01*
X97769662Y-119977200D02*
X97674424Y-119881961D01*
X97674424Y-119881961D02*
X97626805Y-119786723D01*
X97626805Y-119786723D02*
X97579186Y-119596247D01*
X97579186Y-119596247D02*
X97579186Y-119453390D01*
X97579186Y-119453390D02*
X97626805Y-119262914D01*
X97626805Y-119262914D02*
X97674424Y-119167676D01*
X97674424Y-119167676D02*
X97769662Y-119072438D01*
X97769662Y-119072438D02*
X97912519Y-119024819D01*
X97912519Y-119024819D02*
X98007757Y-119024819D01*
X98007757Y-119024819D02*
X98150614Y-119072438D01*
X98150614Y-119072438D02*
X98198233Y-119120057D01*
X98531567Y-119024819D02*
X99150614Y-119024819D01*
X99150614Y-119024819D02*
X98817281Y-119405771D01*
X98817281Y-119405771D02*
X98960138Y-119405771D01*
X98960138Y-119405771D02*
X99055376Y-119453390D01*
X99055376Y-119453390D02*
X99102995Y-119501009D01*
X99102995Y-119501009D02*
X99150614Y-119596247D01*
X99150614Y-119596247D02*
X99150614Y-119834342D01*
X99150614Y-119834342D02*
X99102995Y-119929580D01*
X99102995Y-119929580D02*
X99055376Y-119977200D01*
X99055376Y-119977200D02*
X98960138Y-120024819D01*
X98960138Y-120024819D02*
X98674424Y-120024819D01*
X98674424Y-120024819D02*
X98579186Y-119977200D01*
X98579186Y-119977200D02*
X98531567Y-119929580D01*
X128279580Y-123006666D02*
X128327200Y-123054285D01*
X128327200Y-123054285D02*
X128374819Y-123197142D01*
X128374819Y-123197142D02*
X128374819Y-123292380D01*
X128374819Y-123292380D02*
X128327200Y-123435237D01*
X128327200Y-123435237D02*
X128231961Y-123530475D01*
X128231961Y-123530475D02*
X128136723Y-123578094D01*
X128136723Y-123578094D02*
X127946247Y-123625713D01*
X127946247Y-123625713D02*
X127803390Y-123625713D01*
X127803390Y-123625713D02*
X127612914Y-123578094D01*
X127612914Y-123578094D02*
X127517676Y-123530475D01*
X127517676Y-123530475D02*
X127422438Y-123435237D01*
X127422438Y-123435237D02*
X127374819Y-123292380D01*
X127374819Y-123292380D02*
X127374819Y-123197142D01*
X127374819Y-123197142D02*
X127422438Y-123054285D01*
X127422438Y-123054285D02*
X127470057Y-123006666D01*
X128374819Y-122054285D02*
X128374819Y-122625713D01*
X128374819Y-122339999D02*
X127374819Y-122339999D01*
X127374819Y-122339999D02*
X127517676Y-122435237D01*
X127517676Y-122435237D02*
X127612914Y-122530475D01*
X127612914Y-122530475D02*
X127660533Y-122625713D01*
X131503333Y-101909580D02*
X131455714Y-101957200D01*
X131455714Y-101957200D02*
X131312857Y-102004819D01*
X131312857Y-102004819D02*
X131217619Y-102004819D01*
X131217619Y-102004819D02*
X131074762Y-101957200D01*
X131074762Y-101957200D02*
X130979524Y-101861961D01*
X130979524Y-101861961D02*
X130931905Y-101766723D01*
X130931905Y-101766723D02*
X130884286Y-101576247D01*
X130884286Y-101576247D02*
X130884286Y-101433390D01*
X130884286Y-101433390D02*
X130931905Y-101242914D01*
X130931905Y-101242914D02*
X130979524Y-101147676D01*
X130979524Y-101147676D02*
X131074762Y-101052438D01*
X131074762Y-101052438D02*
X131217619Y-101004819D01*
X131217619Y-101004819D02*
X131312857Y-101004819D01*
X131312857Y-101004819D02*
X131455714Y-101052438D01*
X131455714Y-101052438D02*
X131503333Y-101100057D01*
X132408095Y-101004819D02*
X131931905Y-101004819D01*
X131931905Y-101004819D02*
X131884286Y-101481009D01*
X131884286Y-101481009D02*
X131931905Y-101433390D01*
X131931905Y-101433390D02*
X132027143Y-101385771D01*
X132027143Y-101385771D02*
X132265238Y-101385771D01*
X132265238Y-101385771D02*
X132360476Y-101433390D01*
X132360476Y-101433390D02*
X132408095Y-101481009D01*
X132408095Y-101481009D02*
X132455714Y-101576247D01*
X132455714Y-101576247D02*
X132455714Y-101814342D01*
X132455714Y-101814342D02*
X132408095Y-101909580D01*
X132408095Y-101909580D02*
X132360476Y-101957200D01*
X132360476Y-101957200D02*
X132265238Y-102004819D01*
X132265238Y-102004819D02*
X132027143Y-102004819D01*
X132027143Y-102004819D02*
X131931905Y-101957200D01*
X131931905Y-101957200D02*
X131884286Y-101909580D01*
D11*
%TO.C,A3*%
X136120000Y-102250000D02*
X136120000Y-103650000D01*
X136120000Y-104920000D02*
X136120000Y-122830000D01*
X136120000Y-122830000D02*
X151620000Y-122830000D01*
X137520000Y-102250000D02*
X136120000Y-102250000D01*
X138790000Y-102250000D02*
X138790000Y-104920000D01*
X138790000Y-104920000D02*
X136120000Y-104920000D01*
X138790000Y-104920000D02*
X138790000Y-122830000D01*
X148950000Y-102250000D02*
X148950000Y-122830000D01*
X151620000Y-102250000D02*
X138790000Y-102250000D01*
X151620000Y-122830000D02*
X151620000Y-102250000D01*
%TO.C,J8*%
X86900000Y-96640000D02*
X101400000Y-96640000D01*
X86900000Y-105840000D02*
X86900000Y-96640000D01*
X95500000Y-105840000D02*
X86900000Y-105840000D01*
X101400000Y-96640000D02*
X101400000Y-98640000D01*
X101400000Y-103840000D02*
X101400000Y-105840000D01*
X101400000Y-105840000D02*
X100100000Y-105840000D01*
X101700000Y-96340000D02*
X100400000Y-96340000D01*
X101700000Y-98040000D02*
X101700000Y-96340000D01*
%TO.C,REF\u002A\u002A*%
X112820000Y-87390000D02*
X112820000Y-86010000D01*
X114200000Y-87390000D02*
X112820000Y-87390000D01*
X115470000Y-84630000D02*
X133360000Y-84630000D01*
X115470000Y-87390000D02*
X115470000Y-84630000D01*
X115470000Y-87390000D02*
X133360000Y-87390000D01*
X133360000Y-87390000D02*
X133360000Y-84630000D01*
%TO.C,C2*%
X104130000Y-123080000D02*
X109290000Y-123080000D01*
X104130000Y-123120000D02*
X109290000Y-123120000D01*
X104131000Y-123040000D02*
X109289000Y-123040000D01*
X104133000Y-123000000D02*
X109287000Y-123000000D01*
X104135000Y-122960000D02*
X109285000Y-122960000D01*
X104138000Y-122920000D02*
X109282000Y-122920000D01*
X104141000Y-122880000D02*
X105670000Y-122880000D01*
X104145000Y-122840000D02*
X105670000Y-122840000D01*
X104150000Y-122800000D02*
X105670000Y-122800000D01*
X104155000Y-122760000D02*
X105670000Y-122760000D01*
X104161000Y-122720000D02*
X105670000Y-122720000D01*
X104167000Y-122680000D02*
X105670000Y-122680000D01*
X104174000Y-122640000D02*
X105670000Y-122640000D01*
X104182000Y-122600000D02*
X105670000Y-122600000D01*
X104191000Y-122560000D02*
X105670000Y-122560000D01*
X104200000Y-122520000D02*
X105670000Y-122520000D01*
X104209000Y-122480000D02*
X105670000Y-122480000D01*
X104220000Y-122440000D02*
X105670000Y-122440000D01*
X104231000Y-122400000D02*
X105670000Y-122400000D01*
X104243000Y-122360000D02*
X105670000Y-122360000D01*
X104255000Y-122320000D02*
X105670000Y-122320000D01*
X104268000Y-122280000D02*
X105670000Y-122280000D01*
X104282000Y-122240000D02*
X105670000Y-122240000D01*
X104297000Y-122200000D02*
X105670000Y-122200000D01*
X104312000Y-122160000D02*
X105670000Y-122160000D01*
X104328000Y-122120000D02*
X105670000Y-122120000D01*
X104345000Y-122080000D02*
X105670000Y-122080000D01*
X104363000Y-122040000D02*
X105670000Y-122040000D01*
X104381000Y-122000000D02*
X105670000Y-122000000D01*
X104401000Y-121960000D02*
X105670000Y-121960000D01*
X104421000Y-121920000D02*
X105670000Y-121920000D01*
X104442000Y-121880000D02*
X105670000Y-121880000D01*
X104464000Y-121840000D02*
X105670000Y-121840000D01*
X104487000Y-121800000D02*
X105670000Y-121800000D01*
X104511000Y-121760000D02*
X105670000Y-121760000D01*
X104535000Y-121720000D02*
X105670000Y-121720000D01*
X104561000Y-121680000D02*
X105670000Y-121680000D01*
X104588000Y-121640000D02*
X105670000Y-121640000D01*
X104616000Y-121600000D02*
X105670000Y-121600000D01*
X104645000Y-121560000D02*
X105670000Y-121560000D01*
X104675000Y-121520000D02*
X105670000Y-121520000D01*
X104707000Y-121480000D02*
X105670000Y-121480000D01*
X104740000Y-121440000D02*
X105670000Y-121440000D01*
X104774000Y-121400000D02*
X105670000Y-121400000D01*
X104809000Y-121360000D02*
X105670000Y-121360000D01*
X104846000Y-121320000D02*
X105670000Y-121320000D01*
X104885000Y-121280000D02*
X105670000Y-121280000D01*
X104925000Y-121240000D02*
X105670000Y-121240000D01*
X104967000Y-121200000D02*
X105670000Y-121200000D01*
X104985000Y-125674775D02*
X105485000Y-125674775D01*
X105011000Y-121160000D02*
X105670000Y-121160000D01*
X105058000Y-121120000D02*
X105670000Y-121120000D01*
X105106000Y-121080000D02*
X105670000Y-121080000D01*
X105157000Y-121040000D02*
X105670000Y-121040000D01*
X105211000Y-121000000D02*
X105670000Y-121000000D01*
X105235000Y-125924775D02*
X105235000Y-125424775D01*
X105267000Y-120960000D02*
X105670000Y-120960000D01*
X105327000Y-120920000D02*
X105670000Y-120920000D01*
X105391000Y-120880000D02*
X105670000Y-120880000D01*
X105459000Y-120840000D02*
X105670000Y-120840000D01*
X105533000Y-120800000D02*
X107887000Y-120800000D01*
X105612000Y-120760000D02*
X107808000Y-120760000D01*
X105699000Y-120720000D02*
X107721000Y-120720000D01*
X105796000Y-120680000D02*
X107624000Y-120680000D01*
X105905000Y-120640000D02*
X107515000Y-120640000D01*
X106033000Y-120600000D02*
X107387000Y-120600000D01*
X106193000Y-120560000D02*
X107227000Y-120560000D01*
X106427000Y-120520000D02*
X106993000Y-120520000D01*
X107750000Y-120840000D02*
X107961000Y-120840000D01*
X107750000Y-120880000D02*
X108029000Y-120880000D01*
X107750000Y-120920000D02*
X108093000Y-120920000D01*
X107750000Y-120960000D02*
X108153000Y-120960000D01*
X107750000Y-121000000D02*
X108209000Y-121000000D01*
X107750000Y-121040000D02*
X108263000Y-121040000D01*
X107750000Y-121080000D02*
X108314000Y-121080000D01*
X107750000Y-121120000D02*
X108362000Y-121120000D01*
X107750000Y-121160000D02*
X108409000Y-121160000D01*
X107750000Y-121200000D02*
X108453000Y-121200000D01*
X107750000Y-121240000D02*
X108495000Y-121240000D01*
X107750000Y-121280000D02*
X108535000Y-121280000D01*
X107750000Y-121320000D02*
X108574000Y-121320000D01*
X107750000Y-121360000D02*
X108611000Y-121360000D01*
X107750000Y-121400000D02*
X108646000Y-121400000D01*
X107750000Y-121440000D02*
X108680000Y-121440000D01*
X107750000Y-121480000D02*
X108713000Y-121480000D01*
X107750000Y-121520000D02*
X108745000Y-121520000D01*
X107750000Y-121560000D02*
X108775000Y-121560000D01*
X107750000Y-121600000D02*
X108804000Y-121600000D01*
X107750000Y-121640000D02*
X108832000Y-121640000D01*
X107750000Y-121680000D02*
X108859000Y-121680000D01*
X107750000Y-121720000D02*
X108885000Y-121720000D01*
X107750000Y-121760000D02*
X108909000Y-121760000D01*
X107750000Y-121800000D02*
X108933000Y-121800000D01*
X107750000Y-121840000D02*
X108956000Y-121840000D01*
X107750000Y-121880000D02*
X108978000Y-121880000D01*
X107750000Y-121920000D02*
X108999000Y-121920000D01*
X107750000Y-121960000D02*
X109019000Y-121960000D01*
X107750000Y-122000000D02*
X109039000Y-122000000D01*
X107750000Y-122040000D02*
X109057000Y-122040000D01*
X107750000Y-122080000D02*
X109075000Y-122080000D01*
X107750000Y-122120000D02*
X109092000Y-122120000D01*
X107750000Y-122160000D02*
X109108000Y-122160000D01*
X107750000Y-122200000D02*
X109123000Y-122200000D01*
X107750000Y-122240000D02*
X109138000Y-122240000D01*
X107750000Y-122280000D02*
X109152000Y-122280000D01*
X107750000Y-122320000D02*
X109165000Y-122320000D01*
X107750000Y-122360000D02*
X109177000Y-122360000D01*
X107750000Y-122400000D02*
X109189000Y-122400000D01*
X107750000Y-122440000D02*
X109200000Y-122440000D01*
X107750000Y-122480000D02*
X109211000Y-122480000D01*
X107750000Y-122520000D02*
X109220000Y-122520000D01*
X107750000Y-122560000D02*
X109229000Y-122560000D01*
X107750000Y-122600000D02*
X109238000Y-122600000D01*
X107750000Y-122640000D02*
X109246000Y-122640000D01*
X107750000Y-122680000D02*
X109253000Y-122680000D01*
X107750000Y-122720000D02*
X109259000Y-122720000D01*
X107750000Y-122760000D02*
X109265000Y-122760000D01*
X107750000Y-122800000D02*
X109270000Y-122800000D01*
X107750000Y-122840000D02*
X109275000Y-122840000D01*
X107750000Y-122880000D02*
X109279000Y-122880000D01*
X109330000Y-123120000D02*
G75*
G02*
X104090000Y-123120000I-2620000J0D01*
G01*
X104090000Y-123120000D02*
G75*
G02*
X109330000Y-123120000I2620000J0D01*
G01*
%TO.C,J2*%
X138450000Y-93800000D02*
X138450000Y-95050000D01*
X138740000Y-94090000D02*
X138740000Y-100060000D01*
X138740000Y-100060000D02*
X148860000Y-100060000D01*
X138750000Y-94100000D02*
X138750000Y-94850000D01*
X138750000Y-94850000D02*
X140550000Y-94850000D01*
X138750000Y-96350000D02*
X139500000Y-96350000D01*
X139500000Y-96350000D02*
X139500000Y-99300000D01*
X139500000Y-99300000D02*
X143800000Y-99300000D01*
X139700000Y-93800000D02*
X138450000Y-93800000D01*
X140550000Y-94100000D02*
X138750000Y-94100000D01*
X140550000Y-94850000D02*
X140550000Y-94100000D01*
X142050000Y-94100000D02*
X142050000Y-94850000D01*
X142050000Y-94850000D02*
X145550000Y-94850000D01*
X145550000Y-94100000D02*
X142050000Y-94100000D01*
X145550000Y-94850000D02*
X145550000Y-94100000D01*
X147050000Y-94100000D02*
X147050000Y-94850000D01*
X147050000Y-94850000D02*
X148850000Y-94850000D01*
X148100000Y-96350000D02*
X148100000Y-99300000D01*
X148100000Y-99300000D02*
X143800000Y-99300000D01*
X148850000Y-94100000D02*
X147050000Y-94100000D01*
X148850000Y-94850000D02*
X148850000Y-94100000D01*
X148850000Y-96350000D02*
X148100000Y-96350000D01*
X148860000Y-94090000D02*
X138740000Y-94090000D01*
X148860000Y-100060000D02*
X148860000Y-94090000D01*
%TO.C,J4*%
X102960000Y-118420000D02*
X102960000Y-119670000D01*
X102960000Y-119670000D02*
X104210000Y-119670000D01*
X103250000Y-106760000D02*
X103250000Y-119380000D01*
X103250000Y-119380000D02*
X109220000Y-119380000D01*
X103260000Y-106770000D02*
X103260000Y-108570000D01*
X103260000Y-108570000D02*
X104010000Y-108570000D01*
X103260000Y-110070000D02*
X103260000Y-116070000D01*
X103260000Y-116070000D02*
X104010000Y-116070000D01*
X103260000Y-117570000D02*
X103260000Y-119370000D01*
X103260000Y-119370000D02*
X104010000Y-119370000D01*
X104010000Y-106770000D02*
X103260000Y-106770000D01*
X104010000Y-108570000D02*
X104010000Y-106770000D01*
X104010000Y-110070000D02*
X103260000Y-110070000D01*
X104010000Y-116070000D02*
X104010000Y-110070000D01*
X104010000Y-117570000D02*
X103260000Y-117570000D01*
X104010000Y-119370000D02*
X104010000Y-117570000D01*
X105510000Y-106770000D02*
X105510000Y-107520000D01*
X105510000Y-107520000D02*
X108460000Y-107520000D01*
X105510000Y-118620000D02*
X108460000Y-118620000D01*
X105510000Y-119370000D02*
X105510000Y-118620000D01*
X108460000Y-107520000D02*
X108460000Y-113070000D01*
X108460000Y-118620000D02*
X108460000Y-113070000D01*
X109220000Y-106760000D02*
X103250000Y-106760000D01*
X109220000Y-119380000D02*
X109220000Y-106760000D01*
%TO.C,REF\u002A\u002A*%
X103670000Y-135630000D02*
X103670000Y-134250000D01*
X105050000Y-135630000D02*
X103670000Y-135630000D01*
X106320000Y-132870000D02*
X129290000Y-132870000D01*
X106320000Y-135630000D02*
X106320000Y-132870000D01*
X106320000Y-135630000D02*
X129290000Y-135630000D01*
X129290000Y-135630000D02*
X129290000Y-132870000D01*
%TO.C,J7*%
X98765000Y-90220000D02*
X98765000Y-92980000D01*
X101415000Y-90220000D02*
X98765000Y-90220000D01*
X101415000Y-90220000D02*
X101415000Y-92980000D01*
X101415000Y-92980000D02*
X98765000Y-92980000D01*
X102685000Y-90220000D02*
X104065000Y-90220000D01*
X104065000Y-90220000D02*
X104065000Y-91600000D01*
%TO.C,REF\u002A\u002A*%
X130580000Y-135620000D02*
X130580000Y-134240000D01*
X131960000Y-135620000D02*
X130580000Y-135620000D01*
X133230000Y-132860000D02*
X151120000Y-132860000D01*
X133230000Y-135620000D02*
X133230000Y-132860000D01*
X133230000Y-135620000D02*
X151120000Y-135620000D01*
X151120000Y-135620000D02*
X151120000Y-132860000D01*
X96500000Y-115200000D02*
X96500000Y-110010000D01*
X99260000Y-110010000D02*
X96500000Y-110010000D01*
X99260000Y-115200000D02*
X96500000Y-115200000D01*
X99260000Y-115200000D02*
X99260000Y-110010000D01*
X99260000Y-116470000D02*
X99260000Y-117850000D01*
X99260000Y-117850000D02*
X97880000Y-117850000D01*
%TO.C,J1*%
X113570000Y-93800000D02*
X113570000Y-95050000D01*
X113860000Y-94090000D02*
X113860000Y-100060000D01*
X113860000Y-100060000D02*
X123980000Y-100060000D01*
X113870000Y-94100000D02*
X113870000Y-94850000D01*
X113870000Y-94850000D02*
X115670000Y-94850000D01*
X113870000Y-96350000D02*
X114620000Y-96350000D01*
X114620000Y-96350000D02*
X114620000Y-99300000D01*
X114620000Y-99300000D02*
X118920000Y-99300000D01*
X114820000Y-93800000D02*
X113570000Y-93800000D01*
X115670000Y-94100000D02*
X113870000Y-94100000D01*
X115670000Y-94850000D02*
X115670000Y-94100000D01*
X117170000Y-94100000D02*
X117170000Y-94850000D01*
X117170000Y-94850000D02*
X120670000Y-94850000D01*
X120670000Y-94100000D02*
X117170000Y-94100000D01*
X120670000Y-94850000D02*
X120670000Y-94100000D01*
X122170000Y-94100000D02*
X122170000Y-94850000D01*
X122170000Y-94850000D02*
X123970000Y-94850000D01*
X123220000Y-96350000D02*
X123220000Y-99300000D01*
X123220000Y-99300000D02*
X118920000Y-99300000D01*
X123970000Y-94100000D02*
X122170000Y-94100000D01*
X123970000Y-94850000D02*
X123970000Y-94100000D01*
X123970000Y-96350000D02*
X123220000Y-96350000D01*
X123980000Y-94090000D02*
X113860000Y-94090000D01*
X123980000Y-100060000D02*
X123980000Y-94090000D01*
%TO.C,A2*%
X111080000Y-102200000D02*
X111080000Y-103600000D01*
X111080000Y-104870000D02*
X111080000Y-122780000D01*
X111080000Y-122780000D02*
X126580000Y-122780000D01*
X112480000Y-102200000D02*
X111080000Y-102200000D01*
X113750000Y-102200000D02*
X113750000Y-104870000D01*
X113750000Y-104870000D02*
X111080000Y-104870000D01*
X113750000Y-104870000D02*
X113750000Y-122780000D01*
X123910000Y-102200000D02*
X123910000Y-122780000D01*
X126580000Y-102200000D02*
X113750000Y-102200000D01*
X126580000Y-122780000D02*
X126580000Y-102200000D01*
%TO.C,J5*%
X128260000Y-118140000D02*
X128260000Y-119390000D01*
X128260000Y-119390000D02*
X129510000Y-119390000D01*
X128550000Y-106480000D02*
X128550000Y-119100000D01*
X128550000Y-119100000D02*
X134520000Y-119100000D01*
X128560000Y-106490000D02*
X128560000Y-108290000D01*
X128560000Y-108290000D02*
X129310000Y-108290000D01*
X128560000Y-109790000D02*
X128560000Y-115790000D01*
X128560000Y-115790000D02*
X129310000Y-115790000D01*
X128560000Y-117290000D02*
X128560000Y-119090000D01*
X128560000Y-119090000D02*
X129310000Y-119090000D01*
X129310000Y-106490000D02*
X128560000Y-106490000D01*
X129310000Y-108290000D02*
X129310000Y-106490000D01*
X129310000Y-109790000D02*
X128560000Y-109790000D01*
X129310000Y-115790000D02*
X129310000Y-109790000D01*
X129310000Y-117290000D02*
X128560000Y-117290000D01*
X129310000Y-119090000D02*
X129310000Y-117290000D01*
X130810000Y-106490000D02*
X130810000Y-107240000D01*
X130810000Y-107240000D02*
X133760000Y-107240000D01*
X130810000Y-118340000D02*
X133760000Y-118340000D01*
X130810000Y-119090000D02*
X130810000Y-118340000D01*
X133760000Y-107240000D02*
X133760000Y-112790000D01*
X133760000Y-118340000D02*
X133760000Y-112790000D01*
X134520000Y-106480000D02*
X128550000Y-106480000D01*
X134520000Y-119100000D02*
X134520000Y-106480000D01*
%TO.C,C4*%
X104550000Y-102680000D02*
X108590000Y-102680000D01*
X104550000Y-103401000D02*
X104550000Y-102680000D01*
X104550000Y-105520000D02*
X104550000Y-104799000D01*
X108590000Y-102680000D02*
X108590000Y-103401000D01*
X108590000Y-104799000D02*
X108590000Y-105520000D01*
X108590000Y-105520000D02*
X104550000Y-105520000D01*
%TO.C,REF\u002A\u002A*%
X135650000Y-87370000D02*
X135650000Y-85990000D01*
X137030000Y-87370000D02*
X135650000Y-87370000D01*
X138300000Y-84610000D02*
X151110000Y-84610000D01*
X138300000Y-87370000D02*
X138300000Y-84610000D01*
X138300000Y-87370000D02*
X151110000Y-87370000D01*
X151110000Y-87370000D02*
X151110000Y-84610000D01*
%TO.C,C3*%
X95560125Y-121845000D02*
X96060125Y-121845000D01*
X95810125Y-121595000D02*
X95810125Y-122095000D01*
X98364900Y-120740000D02*
X98364900Y-125900000D01*
X98404900Y-120740000D02*
X98404900Y-125900000D01*
X98444900Y-120741000D02*
X98444900Y-125899000D01*
X98484900Y-120743000D02*
X98484900Y-125897000D01*
X98524900Y-120745000D02*
X98524900Y-125895000D01*
X98564900Y-120748000D02*
X98564900Y-125892000D01*
X98604900Y-120751000D02*
X98604900Y-122280000D01*
X98604900Y-124360000D02*
X98604900Y-125889000D01*
X98644900Y-120755000D02*
X98644900Y-122280000D01*
X98644900Y-124360000D02*
X98644900Y-125885000D01*
X98684900Y-120760000D02*
X98684900Y-122280000D01*
X98684900Y-124360000D02*
X98684900Y-125880000D01*
X98724900Y-120765000D02*
X98724900Y-122280000D01*
X98724900Y-124360000D02*
X98724900Y-125875000D01*
X98764900Y-120771000D02*
X98764900Y-122280000D01*
X98764900Y-124360000D02*
X98764900Y-125869000D01*
X98804900Y-120777000D02*
X98804900Y-122280000D01*
X98804900Y-124360000D02*
X98804900Y-125863000D01*
X98844900Y-120784000D02*
X98844900Y-122280000D01*
X98844900Y-124360000D02*
X98844900Y-125856000D01*
X98884900Y-120792000D02*
X98884900Y-122280000D01*
X98884900Y-124360000D02*
X98884900Y-125848000D01*
X98924900Y-120801000D02*
X98924900Y-122280000D01*
X98924900Y-124360000D02*
X98924900Y-125839000D01*
X98964900Y-120810000D02*
X98964900Y-122280000D01*
X98964900Y-124360000D02*
X98964900Y-125830000D01*
X99004900Y-120819000D02*
X99004900Y-122280000D01*
X99004900Y-124360000D02*
X99004900Y-125821000D01*
X99044900Y-120830000D02*
X99044900Y-122280000D01*
X99044900Y-124360000D02*
X99044900Y-125810000D01*
X99084900Y-120841000D02*
X99084900Y-122280000D01*
X99084900Y-124360000D02*
X99084900Y-125799000D01*
X99124900Y-120853000D02*
X99124900Y-122280000D01*
X99124900Y-124360000D02*
X99124900Y-125787000D01*
X99164900Y-120865000D02*
X99164900Y-122280000D01*
X99164900Y-124360000D02*
X99164900Y-125775000D01*
X99204900Y-120878000D02*
X99204900Y-122280000D01*
X99204900Y-124360000D02*
X99204900Y-125762000D01*
X99244900Y-120892000D02*
X99244900Y-122280000D01*
X99244900Y-124360000D02*
X99244900Y-125748000D01*
X99284900Y-120907000D02*
X99284900Y-122280000D01*
X99284900Y-124360000D02*
X99284900Y-125733000D01*
X99324900Y-120922000D02*
X99324900Y-122280000D01*
X99324900Y-124360000D02*
X99324900Y-125718000D01*
X99364900Y-120938000D02*
X99364900Y-122280000D01*
X99364900Y-124360000D02*
X99364900Y-125702000D01*
X99404900Y-120955000D02*
X99404900Y-122280000D01*
X99404900Y-124360000D02*
X99404900Y-125685000D01*
X99444900Y-120973000D02*
X99444900Y-122280000D01*
X99444900Y-124360000D02*
X99444900Y-125667000D01*
X99484900Y-120991000D02*
X99484900Y-122280000D01*
X99484900Y-124360000D02*
X99484900Y-125649000D01*
X99524900Y-121011000D02*
X99524900Y-122280000D01*
X99524900Y-124360000D02*
X99524900Y-125629000D01*
X99564900Y-121031000D02*
X99564900Y-122280000D01*
X99564900Y-124360000D02*
X99564900Y-125609000D01*
X99604900Y-121052000D02*
X99604900Y-122280000D01*
X99604900Y-124360000D02*
X99604900Y-125588000D01*
X99644900Y-121074000D02*
X99644900Y-122280000D01*
X99644900Y-124360000D02*
X99644900Y-125566000D01*
X99684900Y-121097000D02*
X99684900Y-122280000D01*
X99684900Y-124360000D02*
X99684900Y-125543000D01*
X99724900Y-121121000D02*
X99724900Y-122280000D01*
X99724900Y-124360000D02*
X99724900Y-125519000D01*
X99764900Y-121145000D02*
X99764900Y-122280000D01*
X99764900Y-124360000D02*
X99764900Y-125495000D01*
X99804900Y-121171000D02*
X99804900Y-122280000D01*
X99804900Y-124360000D02*
X99804900Y-125469000D01*
X99844900Y-121198000D02*
X99844900Y-122280000D01*
X99844900Y-124360000D02*
X99844900Y-125442000D01*
X99884900Y-121226000D02*
X99884900Y-122280000D01*
X99884900Y-124360000D02*
X99884900Y-125414000D01*
X99924900Y-121255000D02*
X99924900Y-122280000D01*
X99924900Y-124360000D02*
X99924900Y-125385000D01*
X99964900Y-121285000D02*
X99964900Y-122280000D01*
X99964900Y-124360000D02*
X99964900Y-125355000D01*
X100004900Y-121317000D02*
X100004900Y-122280000D01*
X100004900Y-124360000D02*
X100004900Y-125323000D01*
X100044900Y-121350000D02*
X100044900Y-122280000D01*
X100044900Y-124360000D02*
X100044900Y-125290000D01*
X100084900Y-121384000D02*
X100084900Y-122280000D01*
X100084900Y-124360000D02*
X100084900Y-125256000D01*
X100124900Y-121419000D02*
X100124900Y-122280000D01*
X100124900Y-124360000D02*
X100124900Y-125221000D01*
X100164900Y-121456000D02*
X100164900Y-122280000D01*
X100164900Y-124360000D02*
X100164900Y-125184000D01*
X100204900Y-121495000D02*
X100204900Y-122280000D01*
X100204900Y-124360000D02*
X100204900Y-125145000D01*
X100244900Y-121535000D02*
X100244900Y-122280000D01*
X100244900Y-124360000D02*
X100244900Y-125105000D01*
X100284900Y-121577000D02*
X100284900Y-122280000D01*
X100284900Y-124360000D02*
X100284900Y-125063000D01*
X100324900Y-121621000D02*
X100324900Y-122280000D01*
X100324900Y-124360000D02*
X100324900Y-125019000D01*
X100364900Y-121668000D02*
X100364900Y-122280000D01*
X100364900Y-124360000D02*
X100364900Y-124972000D01*
X100404900Y-121716000D02*
X100404900Y-122280000D01*
X100404900Y-124360000D02*
X100404900Y-124924000D01*
X100444900Y-121767000D02*
X100444900Y-122280000D01*
X100444900Y-124360000D02*
X100444900Y-124873000D01*
X100484900Y-121821000D02*
X100484900Y-122280000D01*
X100484900Y-124360000D02*
X100484900Y-124819000D01*
X100524900Y-121877000D02*
X100524900Y-122280000D01*
X100524900Y-124360000D02*
X100524900Y-124763000D01*
X100564900Y-121937000D02*
X100564900Y-122280000D01*
X100564900Y-124360000D02*
X100564900Y-124703000D01*
X100604900Y-122001000D02*
X100604900Y-122280000D01*
X100604900Y-124360000D02*
X100604900Y-124639000D01*
X100644900Y-122069000D02*
X100644900Y-122280000D01*
X100644900Y-124360000D02*
X100644900Y-124571000D01*
X100684900Y-122143000D02*
X100684900Y-124497000D01*
X100724900Y-122222000D02*
X100724900Y-124418000D01*
X100764900Y-122309000D02*
X100764900Y-124331000D01*
X100804900Y-122406000D02*
X100804900Y-124234000D01*
X100844900Y-122515000D02*
X100844900Y-124125000D01*
X100884900Y-122643000D02*
X100884900Y-123997000D01*
X100924900Y-122803000D02*
X100924900Y-123837000D01*
X100964900Y-123037000D02*
X100964900Y-123603000D01*
X100984900Y-123320000D02*
G75*
G02*
X95744900Y-123320000I-2620000J0D01*
G01*
X95744900Y-123320000D02*
G75*
G02*
X100984900Y-123320000I2620000J0D01*
G01*
%TO.C,C1*%
X129090000Y-122800000D02*
X134250000Y-122800000D01*
X129090000Y-122840000D02*
X134250000Y-122840000D01*
X129091000Y-122760000D02*
X134249000Y-122760000D01*
X129093000Y-122720000D02*
X134247000Y-122720000D01*
X129095000Y-122680000D02*
X134245000Y-122680000D01*
X129098000Y-122640000D02*
X134242000Y-122640000D01*
X129101000Y-122600000D02*
X130630000Y-122600000D01*
X129105000Y-122560000D02*
X130630000Y-122560000D01*
X129110000Y-122520000D02*
X130630000Y-122520000D01*
X129115000Y-122480000D02*
X130630000Y-122480000D01*
X129121000Y-122440000D02*
X130630000Y-122440000D01*
X129127000Y-122400000D02*
X130630000Y-122400000D01*
X129134000Y-122360000D02*
X130630000Y-122360000D01*
X129142000Y-122320000D02*
X130630000Y-122320000D01*
X129151000Y-122280000D02*
X130630000Y-122280000D01*
X129160000Y-122240000D02*
X130630000Y-122240000D01*
X129169000Y-122200000D02*
X130630000Y-122200000D01*
X129180000Y-122160000D02*
X130630000Y-122160000D01*
X129191000Y-122120000D02*
X130630000Y-122120000D01*
X129203000Y-122080000D02*
X130630000Y-122080000D01*
X129215000Y-122040000D02*
X130630000Y-122040000D01*
X129228000Y-122000000D02*
X130630000Y-122000000D01*
X129242000Y-121960000D02*
X130630000Y-121960000D01*
X129257000Y-121920000D02*
X130630000Y-121920000D01*
X129272000Y-121880000D02*
X130630000Y-121880000D01*
X129288000Y-121840000D02*
X130630000Y-121840000D01*
X129305000Y-121800000D02*
X130630000Y-121800000D01*
X129323000Y-121760000D02*
X130630000Y-121760000D01*
X129341000Y-121720000D02*
X130630000Y-121720000D01*
X129361000Y-121680000D02*
X130630000Y-121680000D01*
X129381000Y-121640000D02*
X130630000Y-121640000D01*
X129402000Y-121600000D02*
X130630000Y-121600000D01*
X129424000Y-121560000D02*
X130630000Y-121560000D01*
X129447000Y-121520000D02*
X130630000Y-121520000D01*
X129471000Y-121480000D02*
X130630000Y-121480000D01*
X129495000Y-121440000D02*
X130630000Y-121440000D01*
X129521000Y-121400000D02*
X130630000Y-121400000D01*
X129548000Y-121360000D02*
X130630000Y-121360000D01*
X129576000Y-121320000D02*
X130630000Y-121320000D01*
X129605000Y-121280000D02*
X130630000Y-121280000D01*
X129635000Y-121240000D02*
X130630000Y-121240000D01*
X129667000Y-121200000D02*
X130630000Y-121200000D01*
X129700000Y-121160000D02*
X130630000Y-121160000D01*
X129734000Y-121120000D02*
X130630000Y-121120000D01*
X129769000Y-121080000D02*
X130630000Y-121080000D01*
X129806000Y-121040000D02*
X130630000Y-121040000D01*
X129845000Y-121000000D02*
X130630000Y-121000000D01*
X129885000Y-120960000D02*
X130630000Y-120960000D01*
X129927000Y-120920000D02*
X130630000Y-120920000D01*
X129945000Y-125394775D02*
X130445000Y-125394775D01*
X129971000Y-120880000D02*
X130630000Y-120880000D01*
X130018000Y-120840000D02*
X130630000Y-120840000D01*
X130066000Y-120800000D02*
X130630000Y-120800000D01*
X130117000Y-120760000D02*
X130630000Y-120760000D01*
X130171000Y-120720000D02*
X130630000Y-120720000D01*
X130195000Y-125644775D02*
X130195000Y-125144775D01*
X130227000Y-120680000D02*
X130630000Y-120680000D01*
X130287000Y-120640000D02*
X130630000Y-120640000D01*
X130351000Y-120600000D02*
X130630000Y-120600000D01*
X130419000Y-120560000D02*
X130630000Y-120560000D01*
X130493000Y-120520000D02*
X132847000Y-120520000D01*
X130572000Y-120480000D02*
X132768000Y-120480000D01*
X130659000Y-120440000D02*
X132681000Y-120440000D01*
X130756000Y-120400000D02*
X132584000Y-120400000D01*
X130865000Y-120360000D02*
X132475000Y-120360000D01*
X130993000Y-120320000D02*
X132347000Y-120320000D01*
X131153000Y-120280000D02*
X132187000Y-120280000D01*
X131387000Y-120240000D02*
X131953000Y-120240000D01*
X132710000Y-120560000D02*
X132921000Y-120560000D01*
X132710000Y-120600000D02*
X132989000Y-120600000D01*
X132710000Y-120640000D02*
X133053000Y-120640000D01*
X132710000Y-120680000D02*
X133113000Y-120680000D01*
X132710000Y-120720000D02*
X133169000Y-120720000D01*
X132710000Y-120760000D02*
X133223000Y-120760000D01*
X132710000Y-120800000D02*
X133274000Y-120800000D01*
X132710000Y-120840000D02*
X133322000Y-120840000D01*
X132710000Y-120880000D02*
X133369000Y-120880000D01*
X132710000Y-120920000D02*
X133413000Y-120920000D01*
X132710000Y-120960000D02*
X133455000Y-120960000D01*
X132710000Y-121000000D02*
X133495000Y-121000000D01*
X132710000Y-121040000D02*
X133534000Y-121040000D01*
X132710000Y-121080000D02*
X133571000Y-121080000D01*
X132710000Y-121120000D02*
X133606000Y-121120000D01*
X132710000Y-121160000D02*
X133640000Y-121160000D01*
X132710000Y-121200000D02*
X133673000Y-121200000D01*
X132710000Y-121240000D02*
X133705000Y-121240000D01*
X132710000Y-121280000D02*
X133735000Y-121280000D01*
X132710000Y-121320000D02*
X133764000Y-121320000D01*
X132710000Y-121360000D02*
X133792000Y-121360000D01*
X132710000Y-121400000D02*
X133819000Y-121400000D01*
X132710000Y-121440000D02*
X133845000Y-121440000D01*
X132710000Y-121480000D02*
X133869000Y-121480000D01*
X132710000Y-121520000D02*
X133893000Y-121520000D01*
X132710000Y-121560000D02*
X133916000Y-121560000D01*
X132710000Y-121600000D02*
X133938000Y-121600000D01*
X132710000Y-121640000D02*
X133959000Y-121640000D01*
X132710000Y-121680000D02*
X133979000Y-121680000D01*
X132710000Y-121720000D02*
X133999000Y-121720000D01*
X132710000Y-121760000D02*
X134017000Y-121760000D01*
X132710000Y-121800000D02*
X134035000Y-121800000D01*
X132710000Y-121840000D02*
X134052000Y-121840000D01*
X132710000Y-121880000D02*
X134068000Y-121880000D01*
X132710000Y-121920000D02*
X134083000Y-121920000D01*
X132710000Y-121960000D02*
X134098000Y-121960000D01*
X132710000Y-122000000D02*
X134112000Y-122000000D01*
X132710000Y-122040000D02*
X134125000Y-122040000D01*
X132710000Y-122080000D02*
X134137000Y-122080000D01*
X132710000Y-122120000D02*
X134149000Y-122120000D01*
X132710000Y-122160000D02*
X134160000Y-122160000D01*
X132710000Y-122200000D02*
X134171000Y-122200000D01*
X132710000Y-122240000D02*
X134180000Y-122240000D01*
X132710000Y-122280000D02*
X134189000Y-122280000D01*
X132710000Y-122320000D02*
X134198000Y-122320000D01*
X132710000Y-122360000D02*
X134206000Y-122360000D01*
X132710000Y-122400000D02*
X134213000Y-122400000D01*
X132710000Y-122440000D02*
X134219000Y-122440000D01*
X132710000Y-122480000D02*
X134225000Y-122480000D01*
X132710000Y-122520000D02*
X134230000Y-122520000D01*
X132710000Y-122560000D02*
X134235000Y-122560000D01*
X132710000Y-122600000D02*
X134239000Y-122600000D01*
X134290000Y-122840000D02*
G75*
G02*
X129050000Y-122840000I-2620000J0D01*
G01*
X129050000Y-122840000D02*
G75*
G02*
X134290000Y-122840000I2620000J0D01*
G01*
%TO.C,C5*%
X129650000Y-102680000D02*
X133690000Y-102680000D01*
X129650000Y-103401000D02*
X129650000Y-102680000D01*
X129650000Y-105520000D02*
X129650000Y-104799000D01*
X133690000Y-102680000D02*
X133690000Y-103401000D01*
X133690000Y-104799000D02*
X133690000Y-105520000D01*
X133690000Y-105520000D02*
X129650000Y-105520000D01*
%TD*%
M02*
