M48
; DRILL file {KiCad 9.0.6} date 2025-12-21T17:04:44+0000
; FORMAT={-:-/ absolute / metric / decimal}
; #@! TF.CreationDate,2025-12-21T17:04:44+00:00
; #@! TF.GenerationSoftware,Kicad,Pcbnew,9.0.6
; #@! TF.FileFunction,Plated,1,2,PTH
FMAT,2
METRIC
; #@! TA.AperFunction,Plated,PTH,ComponentDrill
T1C0.800
; #@! TA.AperFunction,Plated,PTH,ComponentDrill
T2C0.950
; #@! TA.AperFunction,Plated,PTH,ComponentDrill
T3C1.000
%
G90
G05
T1
X97.115Y-123.32
X99.615Y-123.32
X105.32Y-104.1
X106.71Y-121.87
X106.71Y-124.37
X107.23Y-93.552
X107.23Y-96.052
X107.23Y-98.552
X107.82Y-104.1
X112.48Y-103.6
X112.48Y-106.14
X112.48Y-108.68
X112.48Y-111.22
X112.48Y-113.76
X112.48Y-116.3
X112.48Y-118.84
X112.48Y-121.38
X125.18Y-103.6
X125.18Y-106.14
X125.18Y-108.68
X125.18Y-111.22
X125.18Y-113.76
X125.18Y-116.3
X125.18Y-118.84
X125.18Y-121.38
X130.42Y-104.1
X131.67Y-121.59
X131.67Y-124.09
X132.92Y-104.1
X137.52Y-103.65
X137.52Y-106.19
X137.52Y-108.73
X137.52Y-111.27
X137.52Y-113.81
X137.52Y-116.35
X137.52Y-118.89
X137.52Y-121.43
X150.22Y-103.65
X150.22Y-106.19
X150.22Y-108.73
X150.22Y-111.27
X150.22Y-113.81
X150.22Y-116.35
X150.22Y-118.89
X150.22Y-121.43
T2
X105.71Y-109.32
X105.71Y-111.82
X105.71Y-114.32
X105.71Y-116.82
X116.42Y-96.55
X118.92Y-96.55
X121.42Y-96.55
X131.01Y-109.04
X131.01Y-111.54
X131.01Y-114.04
X131.01Y-116.54
X141.3Y-96.55
X143.8Y-96.55
X146.3Y-96.55
T3
X97.88Y-111.39
X97.88Y-113.93
X97.88Y-116.47
X100.145Y-91.6
X102.685Y-91.6
X105.05Y-134.25
X107.59Y-134.25
X110.13Y-134.25
X112.67Y-134.25
X114.2Y-86.01
X115.21Y-134.25
X116.74Y-86.01
X117.75Y-134.25
X119.28Y-86.01
X120.29Y-134.25
X121.82Y-86.01
X122.83Y-134.25
X124.36Y-86.01
X125.37Y-134.25
X126.9Y-86.01
X127.91Y-134.25
X129.44Y-86.01
X131.96Y-134.24
X131.98Y-86.01
X134.5Y-134.24
X137.03Y-85.99
X137.04Y-134.24
X139.57Y-85.99
X139.58Y-134.24
X142.11Y-85.99
X142.12Y-134.24
X144.65Y-85.99
X144.66Y-134.24
X147.19Y-85.99
X147.2Y-134.24
X149.73Y-85.99
X149.74Y-134.24
T3
X94.4Y-100.14G85X94.4Y-102.34
G05
X98.9Y-106.04G85X96.7Y-106.04
G05
X100.7Y-99.94G85X100.7Y-102.54
G05
M30
