%TF.GenerationSoftware,KiCad,Pcbnew,9.0.6*%
%TF.CreationDate,2025-12-21T17:03:36+00:00*%
%TF.ProjectId,CNC Plotter KiCad Try2,434e4320-506c-46f7-9474-6572204b6943,rev?*%
%TF.SameCoordinates,Original*%
%TF.FileFunction,Copper,L2,Bot*%
%TF.FilePolarity,Positive*%
%FSLAX46Y46*%
G04 Gerber Fmt 4.6, Leading zero omitted, Abs format (unit mm)*
G04 Created by KiCad (PCBNEW 9.0.6) date 2025-12-21 17:03:36*
%MOMM*%
%LPD*%
G01*
G04 APERTURE LIST*
G04 Aperture macros list*
%AMRoundRect*
0 Rectangle with rounded corners*
0 $1 Rounding radius*
0 $2 $3 $4 $5 $6 $7 $8 $9 X,Y pos of 4 corners*
0 Add a 4 corners polygon primitive as box body*
4,1,4,$2,$3,$4,$5,$6,$7,$8,$9,$2,$3,0*
0 Add four circle primitives for the rounded corners*
1,1,$1+$1,$2,$3*
1,1,$1+$1,$4,$5*
1,1,$1+$1,$6,$7*
1,1,$1+$1,$8,$9*
0 Add four rect primitives between the rounded corners*
20,1,$1+$1,$2,$3,$4,$5,0*
20,1,$1+$1,$4,$5,$6,$7,0*
20,1,$1+$1,$6,$7,$8,$9,0*
20,1,$1+$1,$8,$9,$2,$3,0*%
G04 Aperture macros list end*
%TA.AperFunction,ComponentPad*%
%ADD10R,1.600000X1.600000*%
%TD*%
%TA.AperFunction,ComponentPad*%
%ADD11O,1.600000X1.600000*%
%TD*%
%TA.AperFunction,ComponentPad*%
%ADD12R,2.000000X4.600000*%
%TD*%
%TA.AperFunction,ComponentPad*%
%ADD13O,2.000000X4.200000*%
%TD*%
%TA.AperFunction,ComponentPad*%
%ADD14O,4.200000X2.000000*%
%TD*%
%TA.AperFunction,ComponentPad*%
%ADD15R,1.700000X1.700000*%
%TD*%
%TA.AperFunction,ComponentPad*%
%ADD16C,1.700000*%
%TD*%
%TA.AperFunction,ComponentPad*%
%ADD17RoundRect,0.250000X0.550000X-0.550000X0.550000X0.550000X-0.550000X0.550000X-0.550000X-0.550000X0*%
%TD*%
%TA.AperFunction,ComponentPad*%
%ADD18C,1.600000*%
%TD*%
%TA.AperFunction,ComponentPad*%
%ADD19RoundRect,0.250000X-0.600000X-0.725000X0.600000X-0.725000X0.600000X0.725000X-0.600000X0.725000X0*%
%TD*%
%TA.AperFunction,ComponentPad*%
%ADD20O,1.700000X1.950000*%
%TD*%
%TA.AperFunction,ComponentPad*%
%ADD21RoundRect,0.250000X0.725000X-0.600000X0.725000X0.600000X-0.725000X0.600000X-0.725000X-0.600000X0*%
%TD*%
%TA.AperFunction,ComponentPad*%
%ADD22O,1.950000X1.700000*%
%TD*%
%TA.AperFunction,ComponentPad*%
%ADD23RoundRect,0.250000X-0.550000X-0.550000X0.550000X-0.550000X0.550000X0.550000X-0.550000X0.550000X0*%
%TD*%
%TA.AperFunction,ComponentPad*%
%ADD24RoundRect,0.190500X-1.079500X-0.444500X1.079500X-0.444500X1.079500X0.444500X-1.079500X0.444500X0*%
%TD*%
G04 APERTURE END LIST*
D10*
%TO.P,A3,1,GND*%
%TO.N,Net-(A2-MS1)*%
X137520000Y-103650000D03*
D11*
%TO.P,A3,2,VDD*%
%TO.N,Net-(A1-+5V)*%
X137520000Y-106190000D03*
%TO.P,A3,3,1B*%
%TO.N,Net-(A3-1B)*%
X137520000Y-108730000D03*
%TO.P,A3,4,1A*%
%TO.N,Net-(A3-1A)*%
X137520000Y-111270000D03*
%TO.P,A3,5,2A*%
%TO.N,Net-(A3-2A)*%
X137520000Y-113810000D03*
%TO.P,A3,6,2B*%
%TO.N,Net-(A3-2B)*%
X137520000Y-116350000D03*
%TO.P,A3,7,GND*%
%TO.N,Net-(A2-MS1)*%
X137520000Y-118890000D03*
%TO.P,A3,8,VMOT*%
%TO.N,Net-(A2-VMOT)*%
X137520000Y-121430000D03*
%TO.P,A3,9,~{ENABLE}*%
%TO.N,Net-(A2-MS1)*%
X150220000Y-121430000D03*
%TO.P,A3,10,MS1*%
X150220000Y-118890000D03*
%TO.P,A3,11,MS2*%
X150220000Y-116350000D03*
%TO.P,A3,12,MS3*%
X150220000Y-113810000D03*
%TO.P,A3,13,~{RESET}*%
%TO.N,Net-(A3-~{RESET})*%
X150220000Y-111270000D03*
%TO.P,A3,14,~{SLEEP}*%
X150220000Y-108730000D03*
%TO.P,A3,15,STEP*%
%TO.N,Net-(A1-D4)*%
X150220000Y-106190000D03*
%TO.P,A3,16,DIR*%
%TO.N,Net-(A1-D5)*%
X150220000Y-103650000D03*
%TD*%
D12*
%TO.P,J8,1*%
%TO.N,Net-(A2-VMOT)*%
X100700000Y-101240000D03*
D13*
%TO.P,J8,2*%
%TO.N,Net-(J1-Pin_1)*%
X94400000Y-101240000D03*
D14*
%TO.P,J8,3*%
%TO.N,N/C*%
X97800000Y-106040000D03*
%TD*%
D15*
%TO.P,REF\u002A\u002A,1*%
%TO.N,N/C*%
X114200000Y-86010000D03*
D16*
%TO.P,REF\u002A\u002A,2*%
X116740000Y-86010000D03*
%TO.P,REF\u002A\u002A,3*%
X119280000Y-86010000D03*
%TO.P,REF\u002A\u002A,4*%
X121820000Y-86010000D03*
%TO.P,REF\u002A\u002A,5*%
X124360000Y-86010000D03*
%TO.P,REF\u002A\u002A,6*%
X126900000Y-86010000D03*
%TO.P,REF\u002A\u002A,7*%
X129440000Y-86010000D03*
%TO.P,REF\u002A\u002A,8*%
X131980000Y-86010000D03*
%TD*%
D17*
%TO.P,C2,1*%
%TO.N,Net-(A2-VMOT)*%
X106710000Y-124370000D03*
D18*
%TO.P,C2,2*%
%TO.N,Net-(A2-MS1)*%
X106710000Y-121870000D03*
%TD*%
D19*
%TO.P,J2,1,Pin_1*%
%TO.N,Net-(J1-Pin_1)*%
X141300000Y-96550000D03*
D20*
%TO.P,J2,2,Pin_2*%
%TO.N,Net-(A1-D11)*%
X143800000Y-96550000D03*
%TO.P,J2,3,Pin_3*%
%TO.N,unconnected-(J2-Pin_3-Pad3)*%
X146300000Y-96550000D03*
%TD*%
D21*
%TO.P,J4,1,Pin_1*%
%TO.N,Net-(A2-2B)*%
X105710000Y-116820000D03*
D22*
%TO.P,J4,2,Pin_2*%
%TO.N,Net-(A2-2A)*%
X105710000Y-114320000D03*
%TO.P,J4,3,Pin_3*%
%TO.N,Net-(A2-1A)*%
X105710000Y-111820000D03*
%TO.P,J4,4,Pin_4*%
%TO.N,Net-(A2-1B)*%
X105710000Y-109320000D03*
%TD*%
D15*
%TO.P,REF\u002A\u002A,1*%
%TO.N,N/C*%
X105050000Y-134250000D03*
D16*
%TO.P,REF\u002A\u002A,2*%
X107590000Y-134250000D03*
%TO.P,REF\u002A\u002A,3*%
X110130000Y-134250000D03*
%TO.P,REF\u002A\u002A,4*%
X112670000Y-134250000D03*
%TO.P,REF\u002A\u002A,5*%
X115210000Y-134250000D03*
%TO.P,REF\u002A\u002A,6*%
X117750000Y-134250000D03*
%TO.P,REF\u002A\u002A,7*%
X120290000Y-134250000D03*
%TO.P,REF\u002A\u002A,8*%
X122830000Y-134250000D03*
%TO.P,REF\u002A\u002A,9*%
X125370000Y-134250000D03*
%TO.P,REF\u002A\u002A,10*%
X127910000Y-134250000D03*
%TD*%
D15*
%TO.P,J7,1,Pin_1*%
%TO.N,Net-(J7-Pin_1)*%
X102685000Y-91600000D03*
D16*
%TO.P,J7,2,Pin_2*%
%TO.N,Net-(A2-VMOT)*%
X100145000Y-91600000D03*
%TD*%
D15*
%TO.P,REF\u002A\u002A,1*%
%TO.N,N/C*%
X131960000Y-134240000D03*
D16*
%TO.P,REF\u002A\u002A,2*%
X134500000Y-134240000D03*
%TO.P,REF\u002A\u002A,3*%
X137040000Y-134240000D03*
%TO.P,REF\u002A\u002A,4*%
X139580000Y-134240000D03*
%TO.P,REF\u002A\u002A,5*%
X142120000Y-134240000D03*
%TO.P,REF\u002A\u002A,6*%
X144660000Y-134240000D03*
%TO.P,REF\u002A\u002A,7*%
X147200000Y-134240000D03*
%TO.P,REF\u002A\u002A,8*%
X149740000Y-134240000D03*
%TD*%
D15*
%TO.P,REF\u002A\u002A,1*%
%TO.N,N/C*%
X97880000Y-116470000D03*
D16*
%TO.P,REF\u002A\u002A,2*%
X97880000Y-113930000D03*
%TO.P,REF\u002A\u002A,3*%
X97880000Y-111390000D03*
%TD*%
D19*
%TO.P,J1,1,Pin_1*%
%TO.N,Net-(J1-Pin_1)*%
X116420000Y-96550000D03*
D20*
%TO.P,J1,2,Pin_2*%
%TO.N,Net-(A1-D10)*%
X118920000Y-96550000D03*
%TO.P,J1,3,Pin_3*%
%TO.N,unconnected-(J1-Pin_3-Pad3)*%
X121420000Y-96550000D03*
%TD*%
D10*
%TO.P,A2,1,GND*%
%TO.N,Net-(A2-MS1)*%
X112480000Y-103600000D03*
D11*
%TO.P,A2,2,VDD*%
%TO.N,Net-(A1-+5V)*%
X112480000Y-106140000D03*
%TO.P,A2,3,1B*%
%TO.N,Net-(A2-1B)*%
X112480000Y-108680000D03*
%TO.P,A2,4,1A*%
%TO.N,Net-(A2-1A)*%
X112480000Y-111220000D03*
%TO.P,A2,5,2A*%
%TO.N,Net-(A2-2A)*%
X112480000Y-113760000D03*
%TO.P,A2,6,2B*%
%TO.N,Net-(A2-2B)*%
X112480000Y-116300000D03*
%TO.P,A2,7,GND*%
%TO.N,Net-(A2-MS1)*%
X112480000Y-118840000D03*
%TO.P,A2,8,VMOT*%
%TO.N,Net-(A2-VMOT)*%
X112480000Y-121380000D03*
%TO.P,A2,9,~{ENABLE}*%
%TO.N,Net-(A2-MS1)*%
X125180000Y-121380000D03*
%TO.P,A2,10,MS1*%
X125180000Y-118840000D03*
%TO.P,A2,11,MS2*%
X125180000Y-116300000D03*
%TO.P,A2,12,MS3*%
X125180000Y-113760000D03*
%TO.P,A2,13,~{RESET}*%
%TO.N,Net-(A2-~{RESET})*%
X125180000Y-111220000D03*
%TO.P,A2,14,~{SLEEP}*%
X125180000Y-108680000D03*
%TO.P,A2,15,STEP*%
%TO.N,Net-(A1-D2)*%
X125180000Y-106140000D03*
%TO.P,A2,16,DIR*%
%TO.N,Net-(A1-D3)*%
X125180000Y-103600000D03*
%TD*%
D21*
%TO.P,J5,1,Pin_1*%
%TO.N,Net-(A3-2B)*%
X131010000Y-116540000D03*
D22*
%TO.P,J5,2,Pin_2*%
%TO.N,Net-(A3-2A)*%
X131010000Y-114040000D03*
%TO.P,J5,3,Pin_3*%
%TO.N,Net-(A3-1A)*%
X131010000Y-111540000D03*
%TO.P,J5,4,Pin_4*%
%TO.N,Net-(A3-1B)*%
X131010000Y-109040000D03*
%TD*%
D18*
%TO.P,C4,1*%
%TO.N,Net-(A1-+5V)*%
X105320000Y-104100000D03*
%TO.P,C4,2*%
%TO.N,Net-(A2-MS1)*%
X107820000Y-104100000D03*
%TD*%
D15*
%TO.P,REF\u002A\u002A,1*%
%TO.N,N/C*%
X137030000Y-85990000D03*
D16*
%TO.P,REF\u002A\u002A,2*%
X139570000Y-85990000D03*
%TO.P,REF\u002A\u002A,3*%
X142110000Y-85990000D03*
%TO.P,REF\u002A\u002A,4*%
X144650000Y-85990000D03*
%TO.P,REF\u002A\u002A,5*%
X147190000Y-85990000D03*
%TO.P,REF\u002A\u002A,6*%
X149730000Y-85990000D03*
%TD*%
D23*
%TO.P,C3,1*%
%TO.N,Net-(A1-+5V)*%
X97114900Y-123320000D03*
D18*
%TO.P,C3,2*%
%TO.N,Net-(J1-Pin_1)*%
X99614900Y-123320000D03*
%TD*%
D17*
%TO.P,C1,1*%
%TO.N,Net-(A2-VMOT)*%
X131670000Y-124090000D03*
D18*
%TO.P,C1,2*%
%TO.N,Net-(A2-MS1)*%
X131670000Y-121590000D03*
%TD*%
%TO.P,C5,1*%
%TO.N,Net-(A1-+5V)*%
X130420000Y-104100000D03*
%TO.P,C5,2*%
%TO.N,Net-(A2-MS1)*%
X132920000Y-104100000D03*
%TD*%
D24*
%TO.P,LM2596Module2,1,VIN*%
%TO.N,Net-(J7-Pin_1)*%
X107230000Y-93552500D03*
%TO.P,LM2596Module2,2,VOUT*%
%TO.N,Net-(A1-+5V)*%
X107230000Y-96052500D03*
%TO.P,LM2596Module2,3,GND*%
%TO.N,Net-(J1-Pin_1)*%
X107230000Y-98552500D03*
%TD*%
M02*
