ISO-10303-21;
HEADER;
FILE_DESCRIPTION (( 'STEP AP203' ),
    '1' );
FILE_NAME ('PCB.step',
    '2026-02-14T19:24:04',
    ( '' ),
    ( '' ),
    'SwSTEP 2.0',
    'SolidWorks 2024',
    '' );
FILE_SCHEMA (( 'CONFIG_CONTROL_DESIGN' ));
ENDSEC;

DATA;
#1 = VECTOR ( 'NONE', #4, 1000.000000000000000 ) ;
#2 = EDGE_CURVE ( 'NONE', #219, #166, #139, .T. ) ;
#3 = EDGE_LOOP ( 'NONE', ( #88, #232, #51, #57 ) ) ;
#4 = DIRECTION ( 'NONE',  ( -0.000000000000000000, -0.000000000000000000, -1.000000000000000000 ) ) ;
#5 = DIRECTION ( 'NONE',  ( 0.000000000000000000, -0.000000000000000000, 1.000000000000000000 ) ) ;
#6 = PERSON_AND_ORGANIZATION ( #175, #49 ) ;
#7 = APPROVAL_DATE_TIME ( #28, #148 ) ;
#8 = COORDINATED_UNIVERSAL_TIME_OFFSET ( 0, 0, .AHEAD. ) ;
#9 = EDGE_CURVE ( 'NONE', #184, #15, #68, .T. ) ;
#10 = VECTOR ( 'NONE', #55, 1000.000000000000000 ) ;
#11 = CALENDAR_DATE ( 2026, 14, 2 ) ;
#12 = MANIFOLD_SOLID_BREP ( 'Boss-Extrude1', #203 ) ;
#13 = EDGE_CURVE ( 'NONE', #166, #236, #102, .T. ) ;
#14 = ORIENTED_EDGE ( 'NONE', *, *, #2, .F. ) ;
#15 = VERTEX_POINT ( 'NONE', #234 ) ;
#16 = LINE ( 'NONE', #33, #53 ) ;
#17 = APPLICATION_CONTEXT ( 'configuration controlled 3d designs of mechanical parts and assemblies' ) ;
#18 = EDGE_LOOP ( 'NONE', ( #38, #214, #167, #76 ) ) ;
#19 = CC_DESIGN_APPROVAL ( #79, ( #112 ) ) ;
#20 = FACE_OUTER_BOUND ( 'NONE', #52, .T. ) ;
#21 = PRODUCT ( 'PCB', 'PCB', '', ( #134 ) ) ;
#22 = CC_DESIGN_DATE_AND_TIME_ASSIGNMENT ( #228, #65, ( #233 ) ) ;
#23 = ORIENTED_EDGE ( 'NONE', *, *, #186, .T. ) ;
#24 = PLANE ( 'NONE',  #43 ) ;
#25 = VECTOR ( 'NONE', #181, 1000.000000000000000 ) ;
#26 = DIRECTION ( 'NONE',  ( 0.000000000000000000, 0.000000000000000000, -1.000000000000000000 ) ) ;
#27 = DIRECTION ( 'NONE',  ( 1.000000000000000000, 0.000000000000000000, 0.000000000000000000 ) ) ;
#28 = DATE_AND_TIME ( #170, #173 ) ;
#29 = PERSON_AND_ORGANIZATION_ROLE ( 'design_supplier' ) ;
#30 = EDGE_CURVE ( 'NONE', #129, #230, #140, .T. ) ;
#31 = APPROVAL_STATUS ( 'not_yet_approved' ) ;
#32 = CARTESIAN_POINT ( 'NONE',  ( -57.97165906201395558, 1.500000000000000000, -39.75199478538099385 ) ) ;
#33 = CARTESIAN_POINT ( 'NONE',  ( -4.971659062013960018, 1.500000000000000000, 31.24800521461899905 ) ) ;
#34 = AXIS2_PLACEMENT_3D ( 'NONE', #169, #133, #149 ) ;
#35 = ORIENTED_EDGE ( 'NONE', *, *, #30, .F. ) ;
#36 = CC_DESIGN_PERSON_AND_ORGANIZATION_ASSIGNMENT ( #61, #172, ( #233 ) ) ;
#37 = ORIENTED_EDGE ( 'NONE', *, *, #9, .F. ) ;
#38 = ORIENTED_EDGE ( 'NONE', *, *, #46, .T. ) ;
#39 = EDGE_CURVE ( 'NONE', #15, #87, #16, .T. ) ;
#40 = DIRECTION ( 'NONE',  ( 0.000000000000000000, 1.000000000000000000, 0.000000000000000000 ) ) ;
#41 = ORIENTED_EDGE ( 'NONE', *, *, #95, .F. ) ;
#42 = CARTESIAN_POINT ( 'NONE',  ( -57.97165906201395558, 1.500000000000000000, -39.75199478538099385 ) ) ;
#43 = AXIS2_PLACEMENT_3D ( 'NONE', #168, #26, #78 ) ;
#44 = LINE ( 'NONE', #199, #1 ) ;
#45 = PERSON_AND_ORGANIZATION_ROLE ( 'creator' ) ;
#46 = EDGE_CURVE ( 'NONE', #219, #184, #74, .T. ) ;
#47 = APPLICATION_PROTOCOL_DEFINITION ( 'international standard', 'config_control_design', 1994, #66 ) ;
#48 = CALENDAR_DATE ( 2026, 14, 2 ) ;
#49 = ORGANIZATION ( 'UNSPECIFIED', 'UNSPECIFIED', '' ) ;
#50 = LINE ( 'NONE', #124, #216 ) ;
#51 = ORIENTED_EDGE ( 'NONE', *, *, #54, .F. ) ;
#52 = EDGE_LOOP ( 'NONE', ( #146, #198, #37, #141 ) ) ;
#53 = VECTOR ( 'NONE', #161, 1000.000000000000000 ) ;
#54 = EDGE_CURVE ( 'NONE', #87, #230, #217, .T. ) ;
#55 = DIRECTION ( 'NONE',  ( -0.000000000000000000, -0.000000000000000000, -1.000000000000000000 ) ) ;
#56 = DIRECTION ( 'NONE',  ( 0.000000000000000000, 0.000000000000000000, 1.000000000000000000 ) ) ;
#57 = ORIENTED_EDGE ( 'NONE', *, *, #103, .F. ) ;
#58 = CARTESIAN_POINT ( 'NONE',  ( -57.97165906201395558, 1.500000000000000000, 31.24800521461899905 ) ) ;
#59 = CARTESIAN_POINT ( 'NONE',  ( -57.97165906201395558, 1.500000000000000000, -39.75199478538099385 ) ) ;
#60 = CARTESIAN_POINT ( 'NONE',  ( -57.97165906201395558, 0.000000000000000000, -39.75199478538099385 ) ) ;
#61 = PERSON_AND_ORGANIZATION ( #175, #49 ) ;
#62 = DIRECTION ( 'NONE',  ( 0.000000000000000000, 0.000000000000000000, 1.000000000000000000 ) ) ;
#63 = CC_DESIGN_PERSON_AND_ORGANIZATION_ASSIGNMENT ( #136, #45, ( #112 ) ) ;
#64 = DATE_AND_TIME ( #227, #120 ) ;
#65 = DATE_TIME_ROLE ( 'classification_date' ) ;
#66 = APPLICATION_CONTEXT ( 'configuration controlled 3d designs of mechanical parts and assemblies' ) ;
#67 = UNCERTAINTY_MEASURE_WITH_UNIT (LENGTH_MEASURE( 1.000000000000000082E-05 ), #128, 'distance_accuracy_value', 'NONE');
#68 = LINE ( 'NONE', #211, #101 ) ;
#69 = DIRECTION ( 'NONE',  ( -0.000000000000000000, -1.000000000000000000, -0.000000000000000000 ) ) ;
#70 = EDGE_CURVE ( 'NONE', #129, #219, #182, .T. ) ;
#71 = APPROVAL_PERSON_ORGANIZATION ( #206, #148, #171 ) ;
#72 = DIRECTION ( 'NONE',  ( 0.000000000000000000, 0.000000000000000000, 1.000000000000000000 ) ) ;
#73 = AXIS2_PLACEMENT_3D ( 'NONE', #42, #183, #164 ) ;
#74 = LINE ( 'NONE', #104, #207 ) ;
#75 = CARTESIAN_POINT ( 'NONE',  ( -4.971659062013960018, 1.500000000000000000, -39.75199478538099385 ) ) ;
#76 = ORIENTED_EDGE ( 'NONE', *, *, #70, .T. ) ;
#77 = FACE_OUTER_BOUND ( 'NONE', #194, .T. ) ;
#78 = DIRECTION ( 'NONE',  ( -1.000000000000000000, 0.000000000000000000, -0.000000000000000000 ) ) ;
#79 = APPROVAL ( #154, 'UNSPECIFIED' ) ;
#80 = LINE ( 'NONE', #60, #143 ) ;
#81 = ADVANCED_FACE ( 'NONE', ( #158 ), #193, .F. ) ;
#82 = DATE_AND_TIME ( #48, #225 ) ;
#83 = CALENDAR_DATE ( 2026, 14, 2 ) ;
#84 = VECTOR ( 'NONE', #212, 1000.000000000000000 ) ;
#85 = DATE_AND_TIME ( #11, #142 ) ;
#86 = ORIENTED_EDGE ( 'NONE', *, *, #39, .T. ) ;
#87 = VERTEX_POINT ( 'NONE', #126 ) ;
#88 = ORIENTED_EDGE ( 'NONE', *, *, #13, .F. ) ;
#89 = CC_DESIGN_APPROVAL ( #165, ( #233 ) ) ;
#90 = CARTESIAN_POINT ( 'NONE',  ( -57.97165906201395558, 1.500000000000000000, -39.75199478538099385 ) ) ;
#91 = PLANE ( 'NONE',  #113 ) ;
#92 = ORIENTED_EDGE ( 'NONE', *, *, #30, .T. ) ;
#93 = PLANE ( 'NONE',  #137 ) ;
#94 = VECTOR ( 'NONE', #56, 1000.000000000000000 ) ;
#95 = EDGE_CURVE ( 'NONE', #184, #236, #159, .T. ) ;
#96 = CARTESIAN_POINT ( 'NONE',  ( -57.97165906201395558, 1.500000000000000000, -39.75199478538099385 ) ) ;
#97 =( NAMED_UNIT ( * ) PLANE_ANGLE_UNIT ( ) SI_UNIT ( $, .RADIAN. ) );
#98 = APPLICATION_PROTOCOL_DEFINITION ( 'international standard', 'config_control_design', 1994, #17 ) ;
#99 = DATE_TIME_ROLE ( 'creation_date' ) ;
#100 = PERSON_AND_ORGANIZATION ( #175, #49 ) ;
#101 = VECTOR ( 'NONE', #122, 1000.000000000000000 ) ;
#102 = LINE ( 'NONE', #125, #94 ) ;
#103 = EDGE_CURVE ( 'NONE', #236, #87, #50, .T. ) ;
#104 = CARTESIAN_POINT ( 'NONE',  ( -57.97165906201395558, 1.500000000000000000, -39.75199478538099385 ) ) ;
#105 = EDGE_LOOP ( 'NONE', ( #144, #35, #107, #86 ) ) ;
#106 = CARTESIAN_POINT ( 'NONE',  ( -4.971659062013960018, 0.000000000000000000, -39.75199478538099385 ) ) ;
#107 = ORIENTED_EDGE ( 'NONE', *, *, #180, .F. ) ;
#108 = FACE_OUTER_BOUND ( 'NONE', #3, .T. ) ;
#109 = AXIS2_PLACEMENT_3D ( 'NONE', #130, #62, #189 ) ;
#110 = ORIENTED_EDGE ( 'NONE', *, *, #2, .T. ) ;
#111 = CARTESIAN_POINT ( 'NONE',  ( -57.97165906201395558, 0.000000000000000000, 31.24800521461899905 ) ) ;
#112 = PRODUCT_DEFINITION_FORMATION_WITH_SPECIFIED_SOURCE ( 'ANY', '', #21, .NOT_KNOWN. ) ;
#113 = AXIS2_PLACEMENT_3D ( 'NONE', #220, #40, #5 ) ;
#114 = CARTESIAN_POINT ( 'NONE',  ( -4.971659062013960018, 0.000000000000000000, -39.75199478538099385 ) ) ;
#115 = APPROVAL_ROLE ( '' ) ;
#116 = APPROVAL_STATUS ( 'not_yet_approved' ) ;
#117 = COORDINATED_UNIVERSAL_TIME_OFFSET ( 0, 0, .AHEAD. ) ;
#118 = SECURITY_CLASSIFICATION_LEVEL ( 'unclassified' ) ;
#119 = PRODUCT_DEFINITION ( 'UNKNOWN', '', #112, #177 ) ;
#120 = LOCAL_TIME ( 19, 24, 4.000000000000000000, #117 ) ;
#121 = EDGE_LOOP ( 'NONE', ( #179, #41, #196, #110 ) ) ;
#122 = DIRECTION ( 'NONE',  ( 1.000000000000000000, 0.000000000000000000, 0.000000000000000000 ) ) ;
#123 = VECTOR ( 'NONE', #163, 1000.000000000000000 ) ;
#124 = CARTESIAN_POINT ( 'NONE',  ( -57.97165906201395558, 0.000000000000000000, 31.24800521461899905 ) ) ;
#125 = CARTESIAN_POINT ( 'NONE',  ( -57.97165906201395558, 0.000000000000000000, -39.75199478538099385 ) ) ;
#126 = CARTESIAN_POINT ( 'NONE',  ( -4.971659062013960018, 0.000000000000000000, 31.24800521461899905 ) ) ;
#127 = ORIENTED_EDGE ( 'NONE', *, *, #70, .F. ) ;
#128 =( LENGTH_UNIT ( ) NAMED_UNIT ( * ) SI_UNIT ( .MILLI., .METRE. ) );
#129 = VERTEX_POINT ( 'NONE', #75 ) ;
#130 = CARTESIAN_POINT ( 'NONE',  ( 0.000000000000000000, 0.000000000000000000, 0.000000000000000000 ) ) ;
#131 = ADVANCED_BREP_SHAPE_REPRESENTATION ( 'PCB', ( #12, #109 ), #160 ) ;
#132 = APPROVAL_PERSON_ORGANIZATION ( #191, #165, #115 ) ;
#133 = DIRECTION ( 'NONE',  ( 0.000000000000000000, 1.000000000000000000, 0.000000000000000000 ) ) ;
#134 = MECHANICAL_CONTEXT ( 'NONE', #66, 'mechanical' ) ;
#135 = PERSON_AND_ORGANIZATION ( #175, #49 ) ;
#136 = PERSON_AND_ORGANIZATION ( #175, #49 ) ;
#137 = AXIS2_PLACEMENT_3D ( 'NONE', #96, #27, #147 ) ;
#138 = PERSON_AND_ORGANIZATION_ROLE ( 'creator' ) ;
#139 = LINE ( 'NONE', #32, #84 ) ;
#140 = LINE ( 'NONE', #197, #25 ) ;
#141 = ORIENTED_EDGE ( 'NONE', *, *, #95, .T. ) ;
#142 = LOCAL_TIME ( 19, 24, 4.000000000000000000, #174 ) ;
#143 = VECTOR ( 'NONE', #223, 1000.000000000000000 ) ;
#144 = ORIENTED_EDGE ( 'NONE', *, *, #54, .T. ) ;
#145 = CARTESIAN_POINT ( 'NONE',  ( -4.971659062013960018, 1.500000000000000000, -39.75199478538099385 ) ) ;
#146 = ORIENTED_EDGE ( 'NONE', *, *, #103, .T. ) ;
#147 = DIRECTION ( 'NONE',  ( 0.000000000000000000, 0.000000000000000000, -1.000000000000000000 ) ) ;
#148 = APPROVAL ( #116, 'UNSPECIFIED' ) ;
#149 = DIRECTION ( 'NONE',  ( 0.000000000000000000, -0.000000000000000000, 1.000000000000000000 ) ) ;
#150 = CARTESIAN_POINT ( 'NONE',  ( -57.97165906201395558, 0.000000000000000000, -39.75199478538099385 ) ) ;
#151 = FACE_OUTER_BOUND ( 'NONE', #18, .T. ) ;
#152 = CC_DESIGN_SECURITY_CLASSIFICATION ( #233, ( #112 ) ) ;
#153 = APPROVAL_DATE_TIME ( #64, #79 ) ;
#154 = APPROVAL_STATUS ( 'not_yet_approved' ) ;
#155 = ADVANCED_FACE ( 'NONE', ( #108 ), #91, .F. ) ;
#156 = PERSON_AND_ORGANIZATION_ROLE ( 'design_owner' ) ;
#157 = SHAPE_DEFINITION_REPRESENTATION ( #221, #131 ) ;
#158 = FACE_OUTER_BOUND ( 'NONE', #105, .T. ) ;
#159 = LINE ( 'NONE', #231, #185 ) ;
#160 =( GEOMETRIC_REPRESENTATION_CONTEXT ( 3 ) GLOBAL_UNCERTAINTY_ASSIGNED_CONTEXT ( ( #67 ) ) GLOBAL_UNIT_ASSIGNED_CONTEXT ( ( #128, #97, #237 ) ) REPRESENTATION_CONTEXT ( 'NONE', 'WORKASPACE' ) );
#161 = DIRECTION ( 'NONE',  ( -0.000000000000000000, -1.000000000000000000, -0.000000000000000000 ) ) ;
#162 = CC_DESIGN_PERSON_AND_ORGANIZATION_ASSIGNMENT ( #135, #156, ( #21 ) ) ;
#163 = DIRECTION ( 'NONE',  ( -1.000000000000000000, -0.000000000000000000, -0.000000000000000000 ) ) ;
#164 = DIRECTION ( 'NONE',  ( 1.000000000000000000, 0.000000000000000000, -0.000000000000000000 ) ) ;
#165 = APPROVAL ( #31, 'UNSPECIFIED' ) ;
#166 = VERTEX_POINT ( 'NONE', #150 ) ;
#167 = ORIENTED_EDGE ( 'NONE', *, *, #180, .T. ) ;
#168 = CARTESIAN_POINT ( 'NONE',  ( -57.97165906201395558, 1.500000000000000000, 31.24800521461899905 ) ) ;
#169 = CARTESIAN_POINT ( 'NONE',  ( 0.000000000000000000, 1.500000000000000000, 0.000000000000000000 ) ) ;
#170 = CALENDAR_DATE ( 2026, 14, 2 ) ;
#171 = APPROVAL_ROLE ( '' ) ;
#172 = PERSON_AND_ORGANIZATION_ROLE ( 'classification_officer' ) ;
#173 = LOCAL_TIME ( 19, 24, 4.000000000000000000, #209 ) ;
#174 = COORDINATED_UNIVERSAL_TIME_OFFSET ( 0, 0, .AHEAD. ) ;
#175 = PERSON ( 'UNSPECIFIED', 'UNSPECIFIED', 'UNSPECIFIED', ('UNSPECIFIED'), ('UNSPECIFIED'), ('UNSPECIFIED') ) ;
#176 = AXIS2_PLACEMENT_3D ( 'NONE', #145, #178, #218 ) ;
#177 = DESIGN_CONTEXT ( 'detailed design', #17, 'design' ) ;
#178 = DIRECTION ( 'NONE',  ( -1.000000000000000000, 0.000000000000000000, 0.000000000000000000 ) ) ;
#179 = ORIENTED_EDGE ( 'NONE', *, *, #13, .T. ) ;
#180 = EDGE_CURVE ( 'NONE', #15, #129, #44, .T. ) ;
#181 = DIRECTION ( 'NONE',  ( -0.000000000000000000, -1.000000000000000000, -0.000000000000000000 ) ) ;
#182 = LINE ( 'NONE', #90, #123 ) ;
#183 = DIRECTION ( 'NONE',  ( 0.000000000000000000, 0.000000000000000000, 1.000000000000000000 ) ) ;
#184 = VERTEX_POINT ( 'NONE', #58 ) ;
#185 = VECTOR ( 'NONE', #69, 1000.000000000000000 ) ;
#186 = EDGE_CURVE ( 'NONE', #230, #166, #80, .T. ) ;
#187 = APPROVAL_DATE_TIME ( #85, #165 ) ;
#188 = ADVANCED_FACE ( 'NONE', ( #20 ), #24, .F. ) ;
#189 = DIRECTION ( 'NONE',  ( 1.000000000000000000, 0.000000000000000000, 0.000000000000000000 ) ) ;
#190 = PERSON_AND_ORGANIZATION ( #175, #49 ) ;
#191 = PERSON_AND_ORGANIZATION ( #175, #49 ) ;
#192 = APPROVAL_PERSON_ORGANIZATION ( #100, #79, #226 ) ;
#193 = PLANE ( 'NONE',  #176 ) ;
#194 = EDGE_LOOP ( 'NONE', ( #23, #14, #127, #92 ) ) ;
#195 = ADVANCED_FACE ( 'NONE', ( #77 ), #200, .F. ) ;
#196 = ORIENTED_EDGE ( 'NONE', *, *, #46, .F. ) ;
#197 = CARTESIAN_POINT ( 'NONE',  ( -4.971659062013960018, 1.500000000000000000, -39.75199478538099385 ) ) ;
#198 = ORIENTED_EDGE ( 'NONE', *, *, #39, .F. ) ;
#199 = CARTESIAN_POINT ( 'NONE',  ( -4.971659062013960018, 1.500000000000000000, -39.75199478538099385 ) ) ;
#200 = PLANE ( 'NONE',  #73 ) ;
#201 = ADVANCED_FACE ( 'NONE', ( #235 ), #93, .F. ) ;
#202 = LOCAL_TIME ( 19, 24, 4.000000000000000000, #8 ) ;
#203 = CLOSED_SHELL ( 'NONE', ( #201, #188, #81, #195, #222, #155 ) ) ;
#204 = DIRECTION ( 'NONE',  ( 1.000000000000000000, 0.000000000000000000, 0.000000000000000000 ) ) ;
#205 = CC_DESIGN_PERSON_AND_ORGANIZATION_ASSIGNMENT ( #190, #29, ( #112 ) ) ;
#206 = PERSON_AND_ORGANIZATION ( #175, #49 ) ;
#207 = VECTOR ( 'NONE', #72, 1000.000000000000000 ) ;
#208 = COORDINATED_UNIVERSAL_TIME_OFFSET ( 0, 0, .AHEAD. ) ;
#209 = COORDINATED_UNIVERSAL_TIME_OFFSET ( 0, 0, .AHEAD. ) ;
#210 = CC_DESIGN_DATE_AND_TIME_ASSIGNMENT ( #82, #99, ( #119 ) ) ;
#211 = CARTESIAN_POINT ( 'NONE',  ( -57.97165906201395558, 1.500000000000000000, 31.24800521461899905 ) ) ;
#212 = DIRECTION ( 'NONE',  ( -0.000000000000000000, -1.000000000000000000, -0.000000000000000000 ) ) ;
#213 = CC_DESIGN_PERSON_AND_ORGANIZATION_ASSIGNMENT ( #6, #138, ( #119 ) ) ;
#214 = ORIENTED_EDGE ( 'NONE', *, *, #9, .T. ) ;
#215 = CC_DESIGN_APPROVAL ( #148, ( #119 ) ) ;
#216 = VECTOR ( 'NONE', #204, 1000.000000000000000 ) ;
#217 = LINE ( 'NONE', #106, #10 ) ;
#218 = DIRECTION ( 'NONE',  ( 0.000000000000000000, 0.000000000000000000, 1.000000000000000000 ) ) ;
#219 = VERTEX_POINT ( 'NONE', #59 ) ;
#220 = CARTESIAN_POINT ( 'NONE',  ( 0.000000000000000000, 0.000000000000000000, 0.000000000000000000 ) ) ;
#221 = PRODUCT_DEFINITION_SHAPE ( 'NONE', 'NONE',  #119 ) ;
#222 = ADVANCED_FACE ( 'NONE', ( #151 ), #224, .T. ) ;
#223 = DIRECTION ( 'NONE',  ( -1.000000000000000000, -0.000000000000000000, -0.000000000000000000 ) ) ;
#224 = PLANE ( 'NONE',  #34 ) ;
#225 = LOCAL_TIME ( 19, 24, 4.000000000000000000, #208 ) ;
#226 = APPROVAL_ROLE ( '' ) ;
#227 = CALENDAR_DATE ( 2026, 14, 2 ) ;
#228 = DATE_AND_TIME ( #83, #202 ) ;
#229 = PRODUCT_RELATED_PRODUCT_CATEGORY ( 'detail', '', ( #21 ) ) ;
#230 = VERTEX_POINT ( 'NONE', #114 ) ;
#231 = CARTESIAN_POINT ( 'NONE',  ( -57.97165906201395558, 1.500000000000000000, 31.24800521461899905 ) ) ;
#232 = ORIENTED_EDGE ( 'NONE', *, *, #186, .F. ) ;
#233 = SECURITY_CLASSIFICATION ( '', '', #118 ) ;
#234 = CARTESIAN_POINT ( 'NONE',  ( -4.971659062013960018, 1.500000000000000000, 31.24800521461899905 ) ) ;
#235 = FACE_OUTER_BOUND ( 'NONE', #121, .T. ) ;
#236 = VERTEX_POINT ( 'NONE', #111 ) ;
#237 =( NAMED_UNIT ( * ) SI_UNIT ( $, .STERADIAN. ) SOLID_ANGLE_UNIT ( ) );
ENDSEC;
END-ISO-10303-21;
