ISO-10303-21;
HEADER;
FILE_DESCRIPTION (( 'STEP AP214' ),
    '1' );
FILE_NAME ('YaxisIdlerPlate.STEP',
    '2025-12-21T16:27:15',
    ( '' ),
    ( '' ),
    'SwSTEP 2.0',
    'SolidWorks 2024',
    '' );
FILE_SCHEMA (( 'AUTOMOTIVE_DESIGN' ));
ENDSEC;

DATA;
#1 = ORIENTED_EDGE ( 'NONE', *, *, #135, .T. ) ;
#2 = LINE ( 'NONE', #251, #87 ) ;
#3 = EDGE_LOOP ( 'NONE', ( #41, #371, #308, #161 ) ) ;
#4 = CARTESIAN_POINT ( 'NONE',  ( 10.65594701870401018, 7.840904499725986909, 0.000000000000000000 ) ) ;
#5 = EDGE_LOOP ( 'NONE', ( #68, #26, #206, #285 ) ) ;
#6 = APPLICATION_CONTEXT ( 'automotive_design' ) ;
#7 = ORIENTED_EDGE ( 'NONE', *, *, #99, .T. ) ;
#8 = AXIS2_PLACEMENT_3D ( 'NONE', #312, #94, #345 ) ;
#9 = DIRECTION ( 'NONE',  ( -0.000000000000000000, -0.000000000000000000, -1.000000000000000000 ) ) ;
#10 = APPLICATION_PROTOCOL_DEFINITION ( 'draft international standard', 'automotive_design', 1998, #120 ) ;
#11 = EDGE_CURVE ( 'NONE', #266, #269, #156, .T. ) ;
#12 = CIRCLE ( 'NONE', #142, 2.500000000000002220 ) ;
#13 = VECTOR ( 'NONE', #336, 1000.000000000000000 ) ;
#14 = SHAPE_DEFINITION_REPRESENTATION ( #340, #85 ) ;
#15 = DIRECTION ( 'NONE',  ( -0.000000000000000000, -0.000000000000000000, -1.000000000000000000 ) ) ;
#16 = CARTESIAN_POINT ( 'NONE',  ( 40.01448222208797034, 17.84090481265032579, 0.000000000000000000 ) ) ;
#17 = CARTESIAN_POINT ( 'NONE',  ( -23.44745817001656008, 7.840904499725986909, 0.000000000000000000 ) ) ;
#18 =( GEOMETRIC_REPRESENTATION_CONTEXT ( 3 ) GLOBAL_UNCERTAINTY_ASSIGNED_CONTEXT ( ( #250 ) ) GLOBAL_UNIT_ASSIGNED_CONTEXT ( ( #48, #166, #257 ) ) REPRESENTATION_CONTEXT ( 'NONE', 'WORKASPACE' ) );
#19 =( GEOMETRIC_REPRESENTATION_CONTEXT ( 3 ) GLOBAL_UNCERTAINTY_ASSIGNED_CONTEXT ( ( #126 ) ) GLOBAL_UNIT_ASSIGNED_CONTEXT ( ( #45, #325, #284 ) ) REPRESENTATION_CONTEXT ( 'NONE', 'WORKASPACE' ) );
#20 = EDGE_CURVE ( 'NONE', #112, #384, #12, .T. ) ;
#21 = FACE_OUTER_BOUND ( 'NONE', #175, .T. ) ;
#22 = CARTESIAN_POINT ( 'NONE',  ( -30.81185954117416514, -2.159095187349670208, 0.000000000000000000 ) ) ;
#23 = ORIENTED_EDGE ( 'NONE', *, *, #50, .F. ) ;
#24 = MANIFOLD_SOLID_BREP ( 'Boss-Extrude1', #218 ) ;
#25 = CARTESIAN_POINT ( 'NONE',  ( -30.81185954117416514, -2.159095187349670208, 8.000000000000000000 ) ) ;
#26 = ORIENTED_EDGE ( 'NONE', *, *, #294, .T. ) ;
#27 = EDGE_CURVE ( 'NONE', #269, #31, #76, .T. ) ;
#28 = STYLED_ITEM ( 'NONE', ( #194 ), #24 ) ;
#29 = AXIS2_PLACEMENT_3D ( 'NONE', #42, #274, #118 ) ;
#30 = CARTESIAN_POINT ( 'NONE',  ( 0.01448222208796314837, 17.84090481265032579, 8.000000000000000000 ) ) ;
#31 = VERTEX_POINT ( 'NONE', #16 ) ;
#32 = FACE_BOUND ( 'NONE', #54, .T. ) ;
#33 = ORIENTED_EDGE ( 'NONE', *, *, #238, .T. ) ;
#34 = PLANE ( 'NONE',  #334 ) ;
#35 = EDGE_LOOP ( 'NONE', ( #346, #123, #66, #296 ) ) ;
#36 = DIRECTION ( 'NONE',  ( -0.000000000000000000, -0.000000000000000000, -1.000000000000000000 ) ) ;
#37 = EDGE_CURVE ( 'NONE', #159, #375, #49, .T. ) ;
#38 = ORIENTED_EDGE ( 'NONE', *, *, #405, .F. ) ;
#39 = AXIS2_PLACEMENT_3D ( 'NONE', #4, #127, #92 ) ;
#40 = DIRECTION ( 'NONE',  ( -1.000000000000000000, 0.000000000000000000, -0.000000000000000000 ) ) ;
#41 = ORIENTED_EDGE ( 'NONE', *, *, #270, .F. ) ;
#42 = CARTESIAN_POINT ( 'NONE',  ( 10.65594701870401018, 7.840904499725986909, 0.000000000000000000 ) ) ;
#43 = ORIENTED_EDGE ( 'NONE', *, *, #400, .T. ) ;
#44 = ADVANCED_FACE ( 'NONE', ( #288 ), #75, .F. ) ;
#45 =( LENGTH_UNIT ( ) NAMED_UNIT ( * ) SI_UNIT ( .MILLI., .METRE. ) );
#46 = CARTESIAN_POINT ( 'NONE',  ( -23.44745817001656008, 7.840904499725986909, 8.000000000000000000 ) ) ;
#47 = FILL_AREA_STYLE_COLOUR ( '', #263 ) ;
#48 =( LENGTH_UNIT ( ) NAMED_UNIT ( * ) SI_UNIT ( .MILLI., .METRE. ) );
#49 = LINE ( 'NONE', #139, #108 ) ;
#50 = EDGE_CURVE ( 'NONE', #119, #158, #377, .T. ) ;
#51 = CARTESIAN_POINT ( 'NONE',  ( -20.94745817001656363, 7.840904499725986909, 0.000000000000000000 ) ) ;
#52 = PLANE ( 'NONE',  #70 ) ;
#53 = DIRECTION ( 'NONE',  ( -0.000000000000000000, -0.000000000000000000, -1.000000000000000000 ) ) ;
#54 = EDGE_LOOP ( 'NONE', ( #348, #98 ) ) ;
#55 = DIRECTION ( 'NONE',  ( -1.000000000000000000, 0.000000000000000000, 0.000000000000000000 ) ) ;
#56 = CARTESIAN_POINT ( 'NONE',  ( -30.81185954117416514, 17.84090481265032579, 8.000000000000000000 ) ) ;
#57 = ADVANCED_FACE ( 'NONE', ( #225 ), #261, .F. ) ;
#58 = ORIENTED_EDGE ( 'NONE', *, *, #317, .T. ) ;
#59 = DIRECTION ( 'NONE',  ( -1.000000000000000000, 0.000000000000000000, 0.000000000000000000 ) ) ;
#60 = ORIENTED_EDGE ( 'NONE', *, *, #357, .T. ) ;
#61 = AXIS2_PLACEMENT_3D ( 'NONE', #322, #260, #359 ) ;
#62 = AXIS2_PLACEMENT_3D ( 'NONE', #179, #307, #155 ) ;
#63 = DIRECTION ( 'NONE',  ( -1.000000000000000000, 0.000000000000000000, -0.000000000000000000 ) ) ;
#64 = ORIENTED_EDGE ( 'NONE', *, *, #248, .T. ) ;
#65 = LINE ( 'NONE', #125, #109 ) ;
#66 = ORIENTED_EDGE ( 'NONE', *, *, #382, .F. ) ;
#67 = EDGE_CURVE ( 'NONE', #301, #159, #244, .T. ) ;
#68 = ORIENTED_EDGE ( 'NONE', *, *, #50, .T. ) ;
#69 = LINE ( 'NONE', #160, #386 ) ;
#70 = AXIS2_PLACEMENT_3D ( 'NONE', #113, #363, #90 ) ;
#71 = EDGE_LOOP ( 'NONE', ( #7, #73, #117, #58 ) ) ;
#72 = FACE_OUTER_BOUND ( 'NONE', #256, .T. ) ;
#73 = ORIENTED_EDGE ( 'NONE', *, *, #405, .T. ) ;
#74 = CARTESIAN_POINT ( 'NONE',  ( 0.01448222208796314837, 17.84090481265032579, 8.000000000000000000 ) ) ;
#75 = CYLINDRICAL_SURFACE ( 'NONE', #150, 2.500000000000000444 ) ;
#76 = LINE ( 'NONE', #293, #253 ) ;
#77 = EDGE_CURVE ( 'NONE', #209, #311, #172, .T. ) ;
#78 = DIRECTION ( 'NONE',  ( 1.000000000000000000, 0.000000000000000000, 0.000000000000000000 ) ) ;
#79 = CARTESIAN_POINT ( 'NONE',  ( -20.94745817001656363, 7.840904499725986909, 0.000000000000000000 ) ) ;
#80 = CIRCLE ( 'NONE', #292, 2.500000000000002220 ) ;
#81 = DIRECTION ( 'NONE',  ( 0.000000000000000000, -1.000000000000000000, 0.000000000000000000 ) ) ;
#82 = EDGE_CURVE ( 'NONE', #311, #209, #314, .T. ) ;
#83 = FACE_OUTER_BOUND ( 'NONE', #3, .T. ) ;
#84 = EDGE_LOOP ( 'NONE', ( #381, #162 ) ) ;
#85 = ADVANCED_BREP_SHAPE_REPRESENTATION ( 'YaxisIdlerPlate', ( #24, #258 ), #19 ) ;
#86 = LINE ( 'NONE', #404, #305 ) ;
#87 = VECTOR ( 'NONE', #383, 1000.000000000000000 ) ;
#88 = CYLINDRICAL_SURFACE ( 'NONE', #143, 2.500000000000002220 ) ;
#89 = ORIENTED_EDGE ( 'NONE', *, *, #317, .F. ) ;
#90 = DIRECTION ( 'NONE',  ( 0.000000000000000000, -0.000000000000000000, 1.000000000000000000 ) ) ;
#91 = ORIENTED_EDGE ( 'NONE', *, *, #122, .F. ) ;
#92 = DIRECTION ( 'NONE',  ( 1.000000000000000000, 0.000000000000000000, 0.000000000000000000 ) ) ;
#93 = PRESENTATION_LAYER_ASSIGNMENT (  '', '', ( #28 ) ) ;
#94 = DIRECTION ( 'NONE',  ( 0.000000000000000000, 0.000000000000000000, 1.000000000000000000 ) ) ;
#95 = ORIENTED_EDGE ( 'NONE', *, *, #67, .T. ) ;
#96 = CARTESIAN_POINT ( 'NONE',  ( -30.81185954117416514, 17.84090481265032579, 8.000000000000000000 ) ) ;
#97 = CARTESIAN_POINT ( 'NONE',  ( 8.155947018704008400, 7.840904499725986909, 0.000000000000000000 ) ) ;
#98 = ORIENTED_EDGE ( 'NONE', *, *, #20, .T. ) ;
#99 = EDGE_CURVE ( 'NONE', #313, #131, #103, .T. ) ;
#100 = CARTESIAN_POINT ( 'NONE',  ( 0.000000000000000000, 0.000000000000000000, 0.000000000000000000 ) ) ;
#101 = EDGE_LOOP ( 'NONE', ( #213, #236, #33, #272 ) ) ;
#102 = AXIS2_PLACEMENT_3D ( 'NONE', #202, #233, #395 ) ;
#103 = LINE ( 'NONE', #74, #368 ) ;
#104 = EDGE_CURVE ( 'NONE', #131, #401, #290, .T. ) ;
#105 = FACE_OUTER_BOUND ( 'NONE', #275, .T. ) ;
#106 = CARTESIAN_POINT ( 'NONE',  ( 10.65594701870401018, 7.840904499725986909, 8.000000000000000000 ) ) ;
#107 = CARTESIAN_POINT ( 'NONE',  ( -23.44745817001656008, 7.840904499725986909, 8.000000000000000000 ) ) ;
#108 = VECTOR ( 'NONE', #165, 1000.000000000000000 ) ;
#109 = VECTOR ( 'NONE', #36, 1000.000000000000000 ) ;
#110 = DIRECTION ( 'NONE',  ( 0.000000000000000000, 0.000000000000000000, 1.000000000000000000 ) ) ;
#111 = CYLINDRICAL_SURFACE ( 'NONE', #102, 2.499999999999998668 ) ;
#112 = VERTEX_POINT ( 'NONE', #320 ) ;
#113 = CARTESIAN_POINT ( 'NONE',  ( 0.01448222208796559780, -2.159095187349670208, 8.000000000000000000 ) ) ;
#114 = EDGE_CURVE ( 'NONE', #186, #178, #133, .T. ) ;
#115 = CIRCLE ( 'NONE', #39, 2.500000000000000444 ) ;
#116 = CARTESIAN_POINT ( 'NONE',  ( 40.01448222208797034, -2.159095187349670208, 8.000000000000000000 ) ) ;
#117 = ORIENTED_EDGE ( 'NONE', *, *, #114, .T. ) ;
#118 = DIRECTION ( 'NONE',  ( 1.000000000000000000, 0.000000000000000000, 0.000000000000000000 ) ) ;
#119 = VERTEX_POINT ( 'NONE', #46 ) ;
#120 = APPLICATION_CONTEXT ( 'automotive_design' ) ;
#121 = DIRECTION ( 'NONE',  ( 1.000000000000000000, 0.000000000000000000, 0.000000000000000000 ) ) ;
#122 = EDGE_CURVE ( 'NONE', #186, #266, #192, .T. ) ;
#123 = ORIENTED_EDGE ( 'NONE', *, *, #270, .T. ) ;
#124 = VECTOR ( 'NONE', #81, 1000.000000000000000 ) ;
#125 = CARTESIAN_POINT ( 'NONE',  ( 40.01448222208797034, 17.84090481265032579, 8.000000000000000000 ) ) ;
#126 = UNCERTAINTY_MEASURE_WITH_UNIT (LENGTH_MEASURE( 1.000000000000000082E-05 ), #45, 'distance_accuracy_value', 'NONE');
#127 = DIRECTION ( 'NONE',  ( 0.000000000000000000, 0.000000000000000000, 1.000000000000000000 ) ) ;
#128 = ORIENTED_EDGE ( 'NONE', *, *, #104, .T. ) ;
#129 = ADVANCED_FACE ( 'NONE', ( #105 ), #52, .F. ) ;
#130 = CARTESIAN_POINT ( 'NONE',  ( 40.01448222208797034, 17.84090481265032579, 8.000000000000000000 ) ) ;
#131 = VERTEX_POINT ( 'NONE', #56 ) ;
#132 = ORIENTED_EDGE ( 'NONE', *, *, #122, .T. ) ;
#133 = LINE ( 'NONE', #189, #358 ) ;
#134 = CARTESIAN_POINT ( 'NONE',  ( 10.65594701870401018, 7.840904499725986909, 8.000000000000000000 ) ) ;
#135 = EDGE_CURVE ( 'NONE', #31, #401, #86, .T. ) ;
#136 = CARTESIAN_POINT ( 'NONE',  ( -30.81185954117416514, -2.159095187349670208, 8.000000000000000000 ) ) ;
#137 = AXIS2_PLACEMENT_3D ( 'NONE', #51, #224, #355 ) ;
#138 = DIRECTION ( 'NONE',  ( 1.000000000000000000, 0.000000000000000000, 0.000000000000000000 ) ) ;
#139 = CARTESIAN_POINT ( 'NONE',  ( 8.155947018704008400, 7.840904499725986909, 8.000000000000000000 ) ) ;
#140 = DIRECTION ( 'NONE',  ( -0.000000000000000000, -0.000000000000000000, -1.000000000000000000 ) ) ;
#141 = ORIENTED_EDGE ( 'NONE', *, *, #27, .T. ) ;
#142 = AXIS2_PLACEMENT_3D ( 'NONE', #243, #378, #138 ) ;
#143 = AXIS2_PLACEMENT_3D ( 'NONE', #268, #208, #169 ) ;
#144 = CARTESIAN_POINT ( 'NONE',  ( 33.90477351917466109, 7.840904499725986909, 8.000000000000000000 ) ) ;
#145 = ORIENTED_EDGE ( 'NONE', *, *, #11, .F. ) ;
#146 = CARTESIAN_POINT ( 'NONE',  ( 40.01448222208797034, -2.159095187349670208, 0.000000000000000000 ) ) ;
#147 = ORIENTED_EDGE ( 'NONE', *, *, #37, .F. ) ;
#148 = CARTESIAN_POINT ( 'NONE',  ( 31.40477351917465754, 7.840904499725986909, 8.000000000000000000 ) ) ;
#149 = ORIENTED_EDGE ( 'NONE', *, *, #327, .T. ) ;
#150 = AXIS2_PLACEMENT_3D ( 'NONE', #134, #15, #196 ) ;
#151 = MECHANICAL_DESIGN_GEOMETRIC_PRESENTATION_REPRESENTATION (  '', ( #28 ), #18 ) ;
#152 = DIRECTION ( 'NONE',  ( -1.000000000000000000, 0.000000000000000000, 0.000000000000000000 ) ) ;
#153 = ORIENTED_EDGE ( 'NONE', *, *, #357, .F. ) ;
#154 = EDGE_CURVE ( 'NONE', #401, #266, #271, .T. ) ;
#155 = DIRECTION ( 'NONE',  ( 1.000000000000000000, 0.000000000000000000, 0.000000000000000000 ) ) ;
#156 = LINE ( 'NONE', #277, #332 ) ;
#157 = DIRECTION ( 'NONE',  ( -0.000000000000000000, 0.000000000000000000, -1.000000000000000000 ) ) ;
#158 = VERTEX_POINT ( 'NONE', #176 ) ;
#159 = VERTEX_POINT ( 'NONE', #302 ) ;
#160 = CARTESIAN_POINT ( 'NONE',  ( -18.44745817001656363, 7.840904499725986909, 8.000000000000000000 ) ) ;
#161 = ORIENTED_EDGE ( 'NONE', *, *, #20, .F. ) ;
#162 = ORIENTED_EDGE ( 'NONE', *, *, #67, .F. ) ;
#163 = APPLICATION_PROTOCOL_DEFINITION ( 'draft international standard', 'automotive_design', 1998, #6 ) ;
#164 = VECTOR ( 'NONE', #9, 1000.000000000000000 ) ;
#165 = DIRECTION ( 'NONE',  ( -0.000000000000000000, -0.000000000000000000, -1.000000000000000000 ) ) ;
#166 =( NAMED_UNIT ( * ) PLANE_ANGLE_UNIT ( ) SI_UNIT ( $, .RADIAN. ) );
#167 = ADVANCED_FACE ( 'NONE', ( #21 ), #264, .F. ) ;
#168 = AXIS2_PLACEMENT_3D ( 'NONE', #350, #380, #63 ) ;
#169 = DIRECTION ( 'NONE',  ( -1.000000000000000000, 0.000000000000000000, 0.000000000000000000 ) ) ;
#170 = PLANE ( 'NONE',  #200 ) ;
#171 = EDGE_LOOP ( 'NONE', ( #60, #149 ) ) ;
#172 = CIRCLE ( 'NONE', #184, 2.499999999999998668 ) ;
#173 = EDGE_CURVE ( 'NONE', #351, #222, #226, .T. ) ;
#174 = FACE_OUTER_BOUND ( 'NONE', #303, .T. ) ;
#175 = EDGE_LOOP ( 'NONE', ( #343, #95, #215, #331 ) ) ;
#176 = CARTESIAN_POINT ( 'NONE',  ( -18.44745817001656363, 7.840904499725986909, 8.000000000000000000 ) ) ;
#177 = CARTESIAN_POINT ( 'NONE',  ( 31.40477351917465754, 7.840904499725986909, 8.000000000000000000 ) ) ;
#178 = VERTEX_POINT ( 'NONE', #116 ) ;
#179 = CARTESIAN_POINT ( 'NONE',  ( -20.94745817001656363, 7.840904499725986909, 8.000000000000000000 ) ) ;
#180 = EDGE_LOOP ( 'NONE', ( #141, #403, #89, #319 ) ) ;
#181 = PLANE ( 'NONE',  #168 ) ;
#182 = ORIENTED_EDGE ( 'NONE', *, *, #154, .T. ) ;
#183 = CARTESIAN_POINT ( 'NONE',  ( 13.15594701870401018, 7.840904499725986909, 0.000000000000000000 ) ) ;
#184 = AXIS2_PLACEMENT_3D ( 'NONE', #79, #391, #198 ) ;
#185 = PLANE ( 'NONE',  #237 ) ;
#186 = VERTEX_POINT ( 'NONE', #25 ) ;
#187 = DIRECTION ( 'NONE',  ( 0.000000000000000000, 0.000000000000000000, -1.000000000000000000 ) ) ;
#188 = EDGE_LOOP ( 'NONE', ( #64, #366, #153, #147 ) ) ;
#189 = CARTESIAN_POINT ( 'NONE',  ( -30.81185954117416514, -2.159095187349670208, 8.000000000000000000 ) ) ;
#190 = ADVANCED_FACE ( 'NONE', ( #364 ), #88, .F. ) ;
#191 = VECTOR ( 'NONE', #53, 1000.000000000000000 ) ;
#192 = LINE ( 'NONE', #136, #342 ) ;
#193 = DIRECTION ( 'NONE',  ( 0.000000000000000000, 0.000000000000000000, 1.000000000000000000 ) ) ;
#194 = PRESENTATION_STYLE_ASSIGNMENT (( #361 ) ) ;
#195 = ADVANCED_FACE ( 'NONE', ( #174 ), #304, .F. ) ;
#196 = DIRECTION ( 'NONE',  ( -1.000000000000000000, 0.000000000000000000, 0.000000000000000000 ) ) ;
#197 = PRODUCT ( 'YaxisIdlerPlate', 'YaxisIdlerPlate', '', ( #287 ) ) ;
#198 = DIRECTION ( 'NONE',  ( 1.000000000000000000, 0.000000000000000000, 0.000000000000000000 ) ) ;
#199 = CIRCLE ( 'NONE', #29, 2.500000000000000444 ) ;
#200 = AXIS2_PLACEMENT_3D ( 'NONE', #298, #55, #300 ) ;
#201 = DIRECTION ( 'NONE',  ( 1.000000000000000000, 0.000000000000000000, 0.000000000000000000 ) ) ;
#202 = CARTESIAN_POINT ( 'NONE',  ( -20.94745817001656363, 7.840904499725986909, 8.000000000000000000 ) ) ;
#203 = ORIENTED_EDGE ( 'NONE', *, *, #99, .F. ) ;
#204 = ADVANCED_FACE ( 'NONE', ( #83 ), #338, .F. ) ;
#205 = DIRECTION ( 'NONE',  ( -0.000000000000000000, -0.000000000000000000, -1.000000000000000000 ) ) ;
#206 = ORIENTED_EDGE ( 'NONE', *, *, #77, .F. ) ;
#207 = CARTESIAN_POINT ( 'NONE',  ( 10.65594701870401018, 7.840904499725986909, 8.000000000000000000 ) ) ;
#208 = DIRECTION ( 'NONE',  ( -0.000000000000000000, -0.000000000000000000, -1.000000000000000000 ) ) ;
#209 = VERTEX_POINT ( 'NONE', #17 ) ;
#210 = DIRECTION ( 'NONE',  ( 1.000000000000000000, 0.000000000000000000, -0.000000000000000000 ) ) ;
#211 = ORIENTED_EDGE ( 'NONE', *, *, #77, .T. ) ;
#212 = DIRECTION ( 'NONE',  ( -0.000000000000000000, 1.000000000000000000, -0.000000000000000000 ) ) ;
#213 = ORIENTED_EDGE ( 'NONE', *, *, #294, .F. ) ;
#214 = DIRECTION ( 'NONE',  ( 0.000000000000000000, -1.000000000000000000, 0.000000000000000000 ) ) ;
#215 = ORIENTED_EDGE ( 'NONE', *, *, #37, .T. ) ;
#216 = FACE_BOUND ( 'NONE', #329, .T. ) ;
#217 = ORIENTED_EDGE ( 'NONE', *, *, #135, .F. ) ;
#218 = CLOSED_SHELL ( 'NONE', ( #232, #190, #44, #291, #309, #195, #360, #129, #262, #167, #204, #57 ) ) ;
#219 = AXIS2_PLACEMENT_3D ( 'NONE', #30, #267, #295 ) ;
#220 = LINE ( 'NONE', #130, #254 ) ;
#221 = PRODUCT_DEFINITION_CONTEXT ( 'detailed design', #120, 'design' ) ;
#222 = VERTEX_POINT ( 'NONE', #144 ) ;
#223 = CARTESIAN_POINT ( 'NONE',  ( 0.000000000000000000, 0.000000000000000000, 0.000000000000000000 ) ) ;
#224 = DIRECTION ( 'NONE',  ( 0.000000000000000000, 0.000000000000000000, 1.000000000000000000 ) ) ;
#225 = FACE_OUTER_BOUND ( 'NONE', #101, .T. ) ;
#226 = CIRCLE ( 'NONE', #273, 2.500000000000002220 ) ;
#227 = DIRECTION ( 'NONE',  ( -1.000000000000000000, -0.000000000000000000, -0.000000000000000000 ) ) ;
#228 = CARTESIAN_POINT ( 'NONE',  ( -30.81185954117416514, 17.84090481265032579, 8.000000000000000000 ) ) ;
#229 = DIRECTION ( 'NONE',  ( 0.000000000000000000, 0.000000000000000000, 1.000000000000000000 ) ) ;
#230 = CARTESIAN_POINT ( 'NONE',  ( -30.81185954117416514, 17.84090481265032579, 0.000000000000000000 ) ) ;
#231 = LINE ( 'NONE', #330, #191 ) ;
#232 = ADVANCED_FACE ( 'NONE', ( #372 ), #111, .F. ) ;
#233 = DIRECTION ( 'NONE',  ( -0.000000000000000000, -0.000000000000000000, -1.000000000000000000 ) ) ;
#234 = ORIENTED_EDGE ( 'NONE', *, *, #11, .T. ) ;
#235 = LINE ( 'NONE', #369, #13 ) ;
#236 = ORIENTED_EDGE ( 'NONE', *, *, #367, .T. ) ;
#237 = AXIS2_PLACEMENT_3D ( 'NONE', #100, #187, #40 ) ;
#238 = EDGE_CURVE ( 'NONE', #119, #209, #333, .T. ) ;
#239 = DIRECTION ( 'NONE',  ( -1.000000000000000000, 0.000000000000000000, 0.000000000000000000 ) ) ;
#240 = FACE_OUTER_BOUND ( 'NONE', #337, .T. ) ;
#241 = ORIENTED_EDGE ( 'NONE', *, *, #82, .T. ) ;
#242 = CARTESIAN_POINT ( 'NONE',  ( 28.90477351917465754, 7.840904499725986909, 0.000000000000000000 ) ) ;
#243 = CARTESIAN_POINT ( 'NONE',  ( 31.40477351917465754, 7.840904499725986909, 0.000000000000000000 ) ) ;
#244 = CIRCLE ( 'NONE', #297, 2.500000000000000444 ) ;
#245 = PRODUCT_DEFINITION_FORMATION_WITH_SPECIFIED_SOURCE ( 'ANY', '', #197, .NOT_KNOWN. ) ;
#246 = CARTESIAN_POINT ( 'NONE',  ( -30.81185954117416514, 17.84090481265032579, 0.000000000000000000 ) ) ;
#247 = EDGE_LOOP ( 'NONE', ( #211, #241 ) ) ;
#248 = EDGE_CURVE ( 'NONE', #159, #301, #370, .T. ) ;
#249 = DIRECTION ( 'NONE',  ( -0.000000000000000000, -0.000000000000000000, -1.000000000000000000 ) ) ;
#250 = UNCERTAINTY_MEASURE_WITH_UNIT (LENGTH_MEASURE( 1.000000000000000082E-05 ), #48, 'distance_accuracy_value', 'NONE');
#251 = CARTESIAN_POINT ( 'NONE',  ( 28.90477351917465754, 7.840904499725986909, 8.000000000000000000 ) ) ;
#252 = ORIENTED_EDGE ( 'NONE', *, *, #367, .F. ) ;
#253 = VECTOR ( 'NONE', #389, 1000.000000000000000 ) ;
#254 = VECTOR ( 'NONE', #212, 1000.000000000000000 ) ;
#255 = EDGE_CURVE ( 'NONE', #178, #269, #231, .T. ) ;
#256 = EDGE_LOOP ( 'NONE', ( #217, #282, #145, #398 ) ) ;
#257 =( NAMED_UNIT ( * ) SI_UNIT ( $, .STERADIAN. ) SOLID_ANGLE_UNIT ( ) );
#258 = AXIS2_PLACEMENT_3D ( 'NONE', #223, #193, #321 ) ;
#259 = DIRECTION ( 'NONE',  ( -0.000000000000000000, -0.000000000000000000, -1.000000000000000000 ) ) ;
#260 = DIRECTION ( 'NONE',  ( 0.000000000000000000, 0.000000000000000000, 1.000000000000000000 ) ) ;
#261 = CYLINDRICAL_SURFACE ( 'NONE', #385, 2.499999999999998668 ) ;
#262 = ADVANCED_FACE ( 'NONE', ( #402 ), #170, .F. ) ;
#263 = COLOUR_RGB ( '',0.7921568627450980005, 0.8196078431372548767, 0.9333333333333333481 ) ;
#264 = CYLINDRICAL_SURFACE ( 'NONE', #286, 2.500000000000000444 ) ;
#265 = CIRCLE ( 'NONE', #62, 2.499999999999998668 ) ;
#266 = VERTEX_POINT ( 'NONE', #22 ) ;
#267 = DIRECTION ( 'NONE',  ( 0.000000000000000000, -1.000000000000000000, 0.000000000000000000 ) ) ;
#268 = CARTESIAN_POINT ( 'NONE',  ( 31.40477351917465754, 7.840904499725986909, 8.000000000000000000 ) ) ;
#269 = VERTEX_POINT ( 'NONE', #146 ) ;
#270 = EDGE_CURVE ( 'NONE', #222, #112, #235, .T. ) ;
#271 = LINE ( 'NONE', #230, #124 ) ;
#272 = ORIENTED_EDGE ( 'NONE', *, *, #82, .F. ) ;
#273 = AXIS2_PLACEMENT_3D ( 'NONE', #177, #328, #201 ) ;
#274 = DIRECTION ( 'NONE',  ( 0.000000000000000000, 0.000000000000000000, 1.000000000000000000 ) ) ;
#275 = EDGE_LOOP ( 'NONE', ( #234, #280, #339, #132 ) ) ;
#276 = CARTESIAN_POINT ( 'NONE',  ( 31.40477351917465754, 7.840904499725986909, 0.000000000000000000 ) ) ;
#277 = CARTESIAN_POINT ( 'NONE',  ( 0.01448222208796559780, -2.159095187349670208, 0.000000000000000000 ) ) ;
#278 = FACE_BOUND ( 'NONE', #84, .T. ) ;
#279 = FACE_BOUND ( 'NONE', #171, .T. ) ;
#280 = ORIENTED_EDGE ( 'NONE', *, *, #255, .F. ) ;
#281 = CARTESIAN_POINT ( 'NONE',  ( 40.01448222208797034, 17.84090481265032579, 8.000000000000000000 ) ) ;
#282 = ORIENTED_EDGE ( 'NONE', *, *, #27, .F. ) ;
#283 = PRODUCT_RELATED_PRODUCT_CATEGORY ( 'part', '', ( #197 ) ) ;
#284 =( NAMED_UNIT ( * ) SI_UNIT ( $, .STERADIAN. ) SOLID_ANGLE_UNIT ( ) );
#285 = ORIENTED_EDGE ( 'NONE', *, *, #238, .F. ) ;
#286 = AXIS2_PLACEMENT_3D ( 'NONE', #397, #205, #59 ) ;
#287 = PRODUCT_CONTEXT ( 'NONE', #6, 'mechanical' ) ;
#288 = FACE_OUTER_BOUND ( 'NONE', #188, .T. ) ;
#289 = DIRECTION ( 'NONE',  ( -0.000000000000000000, -0.000000000000000000, -1.000000000000000000 ) ) ;
#290 = LINE ( 'NONE', #228, #164 ) ;
#291 = ADVANCED_FACE ( 'NONE', ( #353, #278, #376, #216 ), #181, .F. ) ;
#292 = AXIS2_PLACEMENT_3D ( 'NONE', #276, #347, #121 ) ;
#293 = CARTESIAN_POINT ( 'NONE',  ( 40.01448222208797034, 17.84090481265032579, 0.000000000000000000 ) ) ;
#294 = EDGE_CURVE ( 'NONE', #158, #311, #69, .T. ) ;
#295 = DIRECTION ( 'NONE',  ( 0.000000000000000000, -0.000000000000000000, -1.000000000000000000 ) ) ;
#296 = ORIENTED_EDGE ( 'NONE', *, *, #349, .F. ) ;
#297 = AXIS2_PLACEMENT_3D ( 'NONE', #106, #229, #78 ) ;
#298 = CARTESIAN_POINT ( 'NONE',  ( 40.01448222208797034, 17.84090481265032579, 8.000000000000000000 ) ) ;
#299 = EDGE_LOOP ( 'NONE', ( #388, #335 ) ) ;
#300 = DIRECTION ( 'NONE',  ( 0.000000000000000000, 0.000000000000000000, 1.000000000000000000 ) ) ;
#301 = VERTEX_POINT ( 'NONE', #310 ) ;
#302 = CARTESIAN_POINT ( 'NONE',  ( 8.155947018704008400, 7.840904499725986909, 8.000000000000000000 ) ) ;
#303 = EDGE_LOOP ( 'NONE', ( #1, #316, #203, #43 ) ) ;
#304 = PLANE ( 'NONE',  #219 ) ;
#305 = VECTOR ( 'NONE', #152, 1000.000000000000000 ) ;
#306 = VECTOR ( 'NONE', #140, 1000.000000000000000 ) ;
#307 = DIRECTION ( 'NONE',  ( 0.000000000000000000, 0.000000000000000000, 1.000000000000000000 ) ) ;
#308 = ORIENTED_EDGE ( 'NONE', *, *, #349, .T. ) ;
#309 = ADVANCED_FACE ( 'NONE', ( #32, #72, #279, #341 ), #185, .T. ) ;
#310 = CARTESIAN_POINT ( 'NONE',  ( 13.15594701870401018, 7.840904499725986909, 8.000000000000000000 ) ) ;
#311 = VERTEX_POINT ( 'NONE', #315 ) ;
#312 = CARTESIAN_POINT ( 'NONE',  ( 31.40477351917465754, 7.840904499725986909, 8.000000000000000000 ) ) ;
#313 = VERTEX_POINT ( 'NONE', #281 ) ;
#314 = CIRCLE ( 'NONE', #137, 2.499999999999998668 ) ;
#315 = CARTESIAN_POINT ( 'NONE',  ( -18.44745817001656363, 7.840904499725986909, 0.000000000000000000 ) ) ;
#316 = ORIENTED_EDGE ( 'NONE', *, *, #104, .F. ) ;
#317 = EDGE_CURVE ( 'NONE', #178, #313, #220, .T. ) ;
#318 = CARTESIAN_POINT ( 'NONE',  ( 28.90477351917465754, 7.840904499725986909, 8.000000000000000000 ) ) ;
#319 = ORIENTED_EDGE ( 'NONE', *, *, #255, .T. ) ;
#320 = CARTESIAN_POINT ( 'NONE',  ( 33.90477351917466109, 7.840904499725986909, 0.000000000000000000 ) ) ;
#321 = DIRECTION ( 'NONE',  ( 1.000000000000000000, 0.000000000000000000, 0.000000000000000000 ) ) ;
#322 = CARTESIAN_POINT ( 'NONE',  ( -20.94745817001656363, 7.840904499725986909, 8.000000000000000000 ) ) ;
#323 = FILL_AREA_STYLE ('',( #47 ) ) ;
#324 = SURFACE_STYLE_FILL_AREA ( #323 ) ;
#325 =( NAMED_UNIT ( * ) PLANE_ANGLE_UNIT ( ) SI_UNIT ( $, .RADIAN. ) );
#326 = SURFACE_SIDE_STYLE ('',( #324 ) ) ;
#327 = EDGE_CURVE ( 'NONE', #354, #375, #115, .T. ) ;
#328 = DIRECTION ( 'NONE',  ( 0.000000000000000000, 0.000000000000000000, 1.000000000000000000 ) ) ;
#329 = EDGE_LOOP ( 'NONE', ( #23, #252 ) ) ;
#330 = CARTESIAN_POINT ( 'NONE',  ( 40.01448222208797034, -2.159095187349670208, 8.000000000000000000 ) ) ;
#331 = ORIENTED_EDGE ( 'NONE', *, *, #327, .F. ) ;
#332 = VECTOR ( 'NONE', #408, 1000.000000000000000 ) ;
#333 = LINE ( 'NONE', #107, #306 ) ;
#334 = AXIS2_PLACEMENT_3D ( 'NONE', #373, #210, #157 ) ;
#335 = ORIENTED_EDGE ( 'NONE', *, *, #390, .F. ) ;
#336 = DIRECTION ( 'NONE',  ( -0.000000000000000000, -0.000000000000000000, -1.000000000000000000 ) ) ;
#337 = EDGE_LOOP ( 'NONE', ( #182, #91, #38, #128 ) ) ;
#338 = CYLINDRICAL_SURFACE ( 'NONE', #387, 2.500000000000002220 ) ;
#339 = ORIENTED_EDGE ( 'NONE', *, *, #114, .F. ) ;
#340 = PRODUCT_DEFINITION_SHAPE ( 'NONE', 'NONE',  #393 ) ;
#341 = FACE_BOUND ( 'NONE', #247, .T. ) ;
#342 = VECTOR ( 'NONE', #259, 1000.000000000000000 ) ;
#343 = ORIENTED_EDGE ( 'NONE', *, *, #374, .F. ) ;
#344 = VECTOR ( 'NONE', #214, 1000.000000000000000 ) ;
#345 = DIRECTION ( 'NONE',  ( 1.000000000000000000, 0.000000000000000000, 0.000000000000000000 ) ) ;
#346 = ORIENTED_EDGE ( 'NONE', *, *, #173, .T. ) ;
#347 = DIRECTION ( 'NONE',  ( 0.000000000000000000, 0.000000000000000000, 1.000000000000000000 ) ) ;
#348 = ORIENTED_EDGE ( 'NONE', *, *, #382, .T. ) ;
#349 = EDGE_CURVE ( 'NONE', #351, #384, #2, .T. ) ;
#350 = CARTESIAN_POINT ( 'NONE',  ( 0.000000000000000000, 0.000000000000000000, 8.000000000000000000 ) ) ;
#351 = VERTEX_POINT ( 'NONE', #318 ) ;
#352 = VECTOR ( 'NONE', #249, 1000.000000000000000 ) ;
#353 = FACE_OUTER_BOUND ( 'NONE', #71, .T. ) ;
#354 = VERTEX_POINT ( 'NONE', #183 ) ;
#355 = DIRECTION ( 'NONE',  ( 1.000000000000000000, 0.000000000000000000, 0.000000000000000000 ) ) ;
#356 = CARTESIAN_POINT ( 'NONE',  ( -20.94745817001656363, 7.840904499725986909, 8.000000000000000000 ) ) ;
#357 = EDGE_CURVE ( 'NONE', #375, #354, #199, .T. ) ;
#358 = VECTOR ( 'NONE', #392, 1000.000000000000000 ) ;
#359 = DIRECTION ( 'NONE',  ( 1.000000000000000000, 0.000000000000000000, 0.000000000000000000 ) ) ;
#360 = ADVANCED_FACE ( 'NONE', ( #240 ), #34, .F. ) ;
#361 = SURFACE_STYLE_USAGE ( .BOTH. , #326 ) ;
#362 = AXIS2_PLACEMENT_3D ( 'NONE', #207, #110, #365 ) ;
#363 = DIRECTION ( 'NONE',  ( 0.000000000000000000, 1.000000000000000000, 0.000000000000000000 ) ) ;
#364 = FACE_OUTER_BOUND ( 'NONE', #35, .T. ) ;
#365 = DIRECTION ( 'NONE',  ( 1.000000000000000000, 0.000000000000000000, 0.000000000000000000 ) ) ;
#366 = ORIENTED_EDGE ( 'NONE', *, *, #374, .T. ) ;
#367 = EDGE_CURVE ( 'NONE', #158, #119, #265, .T. ) ;
#368 = VECTOR ( 'NONE', #227, 1000.000000000000000 ) ;
#369 = CARTESIAN_POINT ( 'NONE',  ( 33.90477351917466109, 7.840904499725986909, 8.000000000000000000 ) ) ;
#370 = CIRCLE ( 'NONE', #362, 2.500000000000000444 ) ;
#371 = ORIENTED_EDGE ( 'NONE', *, *, #390, .T. ) ;
#372 = FACE_OUTER_BOUND ( 'NONE', #5, .T. ) ;
#373 = CARTESIAN_POINT ( 'NONE',  ( -30.81185954117416514, 17.84090481265032579, 8.000000000000000000 ) ) ;
#374 = EDGE_CURVE ( 'NONE', #301, #354, #407, .T. ) ;
#375 = VERTEX_POINT ( 'NONE', #97 ) ;
#376 = FACE_BOUND ( 'NONE', #299, .T. ) ;
#377 = CIRCLE ( 'NONE', #61, 2.499999999999998668 ) ;
#378 = DIRECTION ( 'NONE',  ( 0.000000000000000000, 0.000000000000000000, 1.000000000000000000 ) ) ;
#379 = LINE ( 'NONE', #96, #344 ) ;
#380 = DIRECTION ( 'NONE',  ( 0.000000000000000000, 0.000000000000000000, -1.000000000000000000 ) ) ;
#381 = ORIENTED_EDGE ( 'NONE', *, *, #248, .F. ) ;
#382 = EDGE_CURVE ( 'NONE', #384, #112, #80, .T. ) ;
#383 = DIRECTION ( 'NONE',  ( -0.000000000000000000, -0.000000000000000000, -1.000000000000000000 ) ) ;
#384 = VERTEX_POINT ( 'NONE', #242 ) ;
#385 = AXIS2_PLACEMENT_3D ( 'NONE', #356, #289, #394 ) ;
#386 = VECTOR ( 'NONE', #406, 1000.000000000000000 ) ;
#387 = AXIS2_PLACEMENT_3D ( 'NONE', #148, #399, #239 ) ;
#388 = ORIENTED_EDGE ( 'NONE', *, *, #173, .F. ) ;
#389 = DIRECTION ( 'NONE',  ( -0.000000000000000000, 1.000000000000000000, -0.000000000000000000 ) ) ;
#390 = EDGE_CURVE ( 'NONE', #222, #351, #396, .T. ) ;
#391 = DIRECTION ( 'NONE',  ( 0.000000000000000000, 0.000000000000000000, 1.000000000000000000 ) ) ;
#392 = DIRECTION ( 'NONE',  ( 1.000000000000000000, 0.000000000000000000, 0.000000000000000000 ) ) ;
#393 = PRODUCT_DEFINITION ( 'UNKNOWN', '', #245, #221 ) ;
#394 = DIRECTION ( 'NONE',  ( -1.000000000000000000, 0.000000000000000000, 0.000000000000000000 ) ) ;
#395 = DIRECTION ( 'NONE',  ( -1.000000000000000000, 0.000000000000000000, 0.000000000000000000 ) ) ;
#396 = CIRCLE ( 'NONE', #8, 2.500000000000002220 ) ;
#397 = CARTESIAN_POINT ( 'NONE',  ( 10.65594701870401018, 7.840904499725986909, 8.000000000000000000 ) ) ;
#398 = ORIENTED_EDGE ( 'NONE', *, *, #154, .F. ) ;
#399 = DIRECTION ( 'NONE',  ( -0.000000000000000000, -0.000000000000000000, -1.000000000000000000 ) ) ;
#400 = EDGE_CURVE ( 'NONE', #313, #31, #65, .T. ) ;
#401 = VERTEX_POINT ( 'NONE', #246 ) ;
#402 = FACE_OUTER_BOUND ( 'NONE', #180, .T. ) ;
#403 = ORIENTED_EDGE ( 'NONE', *, *, #400, .F. ) ;
#404 = CARTESIAN_POINT ( 'NONE',  ( 0.01448222208796314837, 17.84090481265032579, 0.000000000000000000 ) ) ;
#405 = EDGE_CURVE ( 'NONE', #131, #186, #379, .T. ) ;
#406 = DIRECTION ( 'NONE',  ( -0.000000000000000000, -0.000000000000000000, -1.000000000000000000 ) ) ;
#407 = LINE ( 'NONE', #409, #352 ) ;
#408 = DIRECTION ( 'NONE',  ( 1.000000000000000000, 0.000000000000000000, 0.000000000000000000 ) ) ;
#409 = CARTESIAN_POINT ( 'NONE',  ( 13.15594701870401018, 7.840904499725986909, 8.000000000000000000 ) ) ;
ENDSEC;
END-ISO-10303-21;
